<?xml version="1.0" encoding="UTF-8"?>
<svg id="Layer_2" xmlns="http://www.w3.org/2000/svg" viewBox="0 0 30 31">
  <g id="content">
    <path d="M15,7.53c-1.07,0-2.07.2-3.01.6-.94.43-1.75,1-2.44,1.71-.69.71-1.24,1.55-1.66,2.52-.39.97-.59,2-.59,3.1s.2,2.13.59,3.1c.42.97.97,1.8,1.66,2.52.69.71,1.5,1.28,2.44,1.71.94.4,1.94.6,3.01.6s2.07-.2,3.01-.6c.94-.43,1.75-1,2.44-1.71.69-.72,1.24-1.55,1.66-2.52.39-.97.59-2,.59-3.1s-.2-2.13-.59-3.1c-.42-.97-.97-1.81-1.66-2.52-.69-.71-1.5-1.28-2.44-1.71-.94-.4-1.94-.6-3.01-.6ZM15,20.61c-1.38,0-2.56-.5-3.53-1.51-.98-1-1.47-2.22-1.47-3.64s.49-2.64,1.47-3.64c.98-1.01,2.15-1.51,3.53-1.51s2.56.5,3.53,1.51c.98,1,1.47,2.22,1.47,3.64s-.49,2.64-1.47,3.64c-.98,1.01-2.15,1.51-3.53,1.51ZM24.8,7.21c0,.53-.18.98-.53,1.33-.35.34-.77.52-1.27.52s-.92-.18-1.27-.52c-.35-.35-.53-.8-.53-1.33s.18-.94.53-1.29c.35-.35.78-.53,1.27-.53s.92.18,1.27.53c.35.35.53.78.53,1.29ZM29.22,5.35c-.39-1.04-.96-1.95-1.72-2.73-.76-.78-1.63-1.37-2.62-1.77l-.04-.04c-.55-.22-1.13-.39-1.74-.51-.61-.12-1.24-.18-1.89-.18h-.04c-.78-.05-1.5-.09-2.15-.1s-1.99-.02-4.02-.02-3.37.01-4.02.02-1.37.05-2.15.1c-.65,0-1.29.07-1.91.2-.62.14-1.22.31-1.8.53l.08-.04c-1.02.42-1.9,1.03-2.66,1.81-.76.78-1.33,1.66-1.72,2.65l-.04.08c-.21.54-.37,1.13-.49,1.78-.12.64-.19,1.3-.22,1.97-.03.83-.04,1.58-.06,2.23-.01.66-.02,2.04-.02,4.13s0,3.48.02,4.15c.01.67.03,1.42.06,2.25.03.65.1,1.28.22,1.89.12.62.28,1.24.49,1.86.42,1.04,1,1.95,1.76,2.73s1.61,1.37,2.58,1.77h.08c.52.25,1.09.43,1.7.57.61.13,1.24.2,1.89.2h.04c.81.05,1.53.09,2.17.1s1.97.02,4,.02,3.37-.01,4.02-.02,1.38-.05,2.19-.1c.65,0,1.29-.07,1.91-.2.62-.14,1.22-.31,1.8-.53l-.08.04c1.02-.42,1.9-1.03,2.66-1.81.76-.78,1.33-1.66,1.72-2.65v-.08c.23-.6.41-1.21.53-1.84.12-.63.18-1.26.18-1.91.03-.83.04-1.58.06-2.23.01-.66.02-2.04.02-4.13v-4.17c0-.65-.03-1.4-.08-2.23,0-.67-.07-1.34-.2-1.99-.13-.66-.31-1.29-.55-1.88l.04.08ZM27.19,21.7c0,.54-.05,1.05-.14,1.55-.09.5-.23.97-.41,1.43l.04-.08c-.26.7-.64,1.29-1.13,1.79-.49.5-1.05.88-1.68,1.15h-.04c-.42.19-.86.32-1.33.4-.47.08-.95.13-1.45.16-.81.03-1.52.05-2.13.06-.61.02-1.93.02-3.97.02s-3.35,0-3.97-.02c-.61-.01-1.32-.03-2.13-.06-.52-.03-1.02-.09-1.48-.18-.47-.09-.92-.22-1.37-.38h.04c-.65-.24-1.22-.62-1.72-1.13s-.87-1.1-1.13-1.77v-.04c-.16-.4-.28-.85-.37-1.33-.09-.48-.14-.99-.14-1.53-.05-.8-.08-1.53-.08-2.17v-8.2c0-.63.03-1.36.08-2.19,0-.51.05-1.01.14-1.51.09-.5.23-.97.41-1.43l-.04.04c.26-.67.64-1.26,1.13-1.77s1.07-.9,1.72-1.17c.42-.16.86-.29,1.33-.38.47-.09.96-.14,1.48-.14.78-.03,1.48-.05,2.11-.06.62-.02,1.95-.02,3.98-.02h3.97c.61,0,1.32.02,2.13.08.49,0,.98.05,1.45.14.47.09.92.23,1.37.42l-.04-.04c.65.27,1.22.66,1.72,1.17s.87,1.1,1.13,1.77c.16.43.28.89.37,1.37.09.48.14.98.14,1.49v.04c.03.8.04,1.53.06,2.17.01.65.02,2.02.02,4.11v4.09c0,.63-.01,1.34-.04,2.15h-.04Z"/>
  </g>
</svg>