<?xml version="1.0" encoding="UTF-8"?>
<svg id="Layer_2" xmlns="http://www.w3.org/2000/svg" viewBox="0 0 192.36 45.56">
  <g id="header">
    <g>
      <g>
        <path d="M27.66,15.04c0-.14-.02-.27-.03-.41-.01-.14.06-.28.05-.42-.02-.14-.06-.27-.08-.41-.02-.14-.03-.28-.05-.41-.02-.14-.12-.26-.15-.39-.03-.14.03-.29,0-.42-.03-.14,0-.29-.04-.42-.04-.13-.19-.23-.23-.37-.04-.13-.03-.28-.07-.41-.05-.13-.14-.24-.19-.37-.05-.13.02-.31-.04-.43-.05-.13-.1-.26-.16-.39-.06-.13-.27-.18-.33-.3-.06-.12-.06-.28-.12-.4-.07-.12-.19-.21-.26-.33-.07-.12-.1-.26-.18-.38-.07-.12-.16-.23-.24-.34-.08-.12-.09-.28-.17-.39-.08-.11-.18-.22-.26-.33-.08-.11-.16-.23-.25-.34-.09-.11-.13-.26-.22-.36-.09-.11-.33-.08-.43-.18-.09-.1-.13-.25-.23-.36-.1-.1-.15-.24-.25-.34-.1-.1-.24-.16-.34-.25-.1-.1-.17-.23-.27-.32-.1-.09-.23-.16-.33-.25-.11-.09-.17-.23-.28-.32-.11-.09-.24-.15-.35-.23-.11-.08-.26-.11-.37-.19-.11-.08-.15-.27-.27-.34-.12-.08-.32-.02-.44-.09-.12-.07-.23-.14-.35-.21-.12-.07-.16-.27-.29-.34-.12-.07-.31,0-.43-.07-.12-.06-.19-.26-.31-.31-.13-.06-.27-.07-.4-.13-.13-.05-.27-.07-.4-.12-.13-.05-.28-.03-.41-.08-.13-.05-.22-.22-.35-.26-.13-.04-.31.07-.44.03-.13-.04-.25-.14-.38-.17-.13-.03-.28-.03-.41-.06-.14-.03-.28.02-.42,0-.14-.02-.24-.24-.38-.26-.14-.02-.28.03-.42,0-.14-.02-.28.07-.42.05-.14-.01-.27-.1-.41-.11-.14,0-.28-.07-.42-.07-.14,0-.28,0-.42,0s-.28.09-.42.09c-.14,0-.28-.07-.42-.06-.14,0-.27.15-.41.16-.14.01-.28-.02-.42,0-.14.02-.29-.08-.43-.06-.14.02-.28.05-.41.08-.14.02-.26.16-.39.19-.14.03-.26.12-.39.15-.14.03-.28.03-.41.07-.14.04-.27.06-.4.1-.13.04-.26.09-.4.13-.13.04-.29,0-.42.06-.13.05-.27.07-.4.13-.13.05-.24.15-.37.21-.13.06-.27.09-.39.15-.13.06-.24.14-.37.2-.12.06-.22.18-.34.25-.12.07-.22.17-.34.24-.12.07-.24.15-.35.22-.12.08-.3.05-.42.13-.11.08-.15.27-.26.35-.11.08-.19.2-.3.29-.11.09-.33.03-.44.12-.11.09-.22.18-.32.27-.1.09-.18.22-.28.32-.1.1-.19.21-.29.31-.1.1-.16.23-.25.33-.1.1-.29.11-.38.21-.09.1-.17.22-.26.32-.09.1-.1.28-.18.39-.09.11-.13.25-.21.36-.08.11-.32.11-.4.22-.08.11-.01.33-.09.44-.08.11-.28.15-.35.26-.07.12-.11.26-.18.38-.07.12-.15.23-.22.35-.07.12-.17.22-.23.35-.06.12-.04.29-.1.41-.06.12-.05.28-.1.4-.05.13-.17.23-.22.35s-.05.27-.1.4c-.05.13-.09.26-.13.39-.04.13-.07.26-.11.4-.04.13-.18.24-.21.37-.03.13,0,.28-.03.42-.03.13-.07.27-.09.4-.02.14-.16.25-.18.39-.02.14.05.29.04.42-.02.14,0,.28-.02.41-.01.14-.03.27-.03.41,0,.14-.11.27-.12.41,0,.14.06.28.06.42s-.04.28-.04.42c0,.14.14.27.15.41,0,.14-.09.28-.08.42.01.14.11.27.13.41.01.14-.09.29-.07.43.02.14.06.27.08.41.02.14.11.26.13.4.03.14-.03.29,0,.42.03.14.23.23.26.36.03.13.03.27.07.41.04.13-.07.31-.03.44.04.13.1.26.15.39.05.13.13.25.18.38.05.13.21.21.26.34.05.13.05.28.11.4.06.13.05.28.11.41.06.12.17.22.24.35.07.12.17.22.24.34.07.12.06.29.13.4.07.12.14.24.22.36.08.11.23.18.31.29.08.11.1.27.19.38.09.11.18.21.27.32.09.11.31.1.4.2.09.1.11.27.21.37.1.1.23.16.33.25.1.1.23.16.33.26.1.09.2.18.31.28.11.09.22.18.32.27.11.09.11.31.22.4.11.09.27.11.38.19.11.08.24.15.35.23.12.08.22.18.33.26.12.08.2.21.32.28.12.07.26.11.39.18.12.07.27.1.39.16.12.07.27.08.4.14.13.06.18.27.31.33.13.06.31,0,.44.06.13.06.27.07.4.12.13.05.27.08.4.13.13.05.26.11.39.15.13.04.24.18.37.22.13.04.25.14.39.18.14.03.3-.05.44-.02.14.03.29,0,.42.02.14.03.27.05.41.07.14.02.26.2.39.22.14.02.28.03.42.04.14.01.29-.11.43-.1.14,0,.27.16.41.16.14,0,.28-.05.42-.05s.28.03.42.03c.14,0,.29.03.43.03.14,0,.27-.13.41-.14.14-.01.29.08.43.06.14-.02.26-.2.4-.22.14-.02.29.02.42,0,.14-.02.26-.11.4-.14.14-.03.31.1.45.07.14-.03.26-.12.4-.16.14-.04.25-.16.38-.2.13-.04.29-.01.42-.06.13-.04.23-.18.36-.23.13-.05.3.01.44-.04.13-.05.21-.22.34-.28.13-.06.26-.11.38-.17.13-.06.29-.04.42-.1.12-.06.26-.1.39-.17.12-.07.19-.23.31-.3.12-.07.31-.03.43-.11.12-.08.21-.19.33-.27.12-.08.27-.1.39-.19.11-.08.21-.19.32-.28.11-.09.15-.26.26-.35.11-.09.27-.12.38-.21.11-.09.23-.17.33-.27.1-.1.13-.27.23-.37.1-.1.2-.19.3-.29.1-.1.29-.11.38-.21.09-.1.06-.32.15-.42.09-.11.17-.21.26-.32.09-.11.28-.13.36-.24.08-.11.07-.29.15-.41.08-.11.22-.18.3-.3.08-.12.1-.27.17-.38.07-.12.28-.16.35-.28.07-.12-.02-.33.04-.45.07-.12.19-.21.25-.33.06-.12.19-.22.24-.34.06-.13.08-.27.14-.39.05-.13.1-.26.15-.39.05-.13.12-.25.16-.38.05-.13.14-.25.18-.38.04-.13.02-.28.06-.42.04-.13.11-.26.15-.39.03-.13.02-.28.05-.42.03-.14-.06-.29-.04-.43.02-.14.23-.24.25-.38.02-.14-.05-.29-.04-.43.02-.14.13-.27.14-.41.01-.14-.13-.29-.12-.43,0-.14.12-.27.13-.41,0-.14.03-.28.03-.42s-.12-.28-.13-.42c0-.14-.06-.28-.07-.41ZM23.68,16.67c0,.14.05.28.03.42-.02.14-.16.26-.18.39-.02.14.12.3.09.43-.03.14-.06.27-.09.41-.03.13-.22.23-.25.36-.04.13.05.3.01.43-.04.13-.23.21-.28.34-.05.13-.06.27-.11.4-.05.13-.08.27-.14.39-.06.12-.06.28-.13.4-.06.12-.25.17-.32.29-.07.12-.01.31-.09.43-.08.12-.21.19-.29.3-.08.11-.14.24-.22.35-.08.11-.11.27-.2.37-.09.1-.33.08-.42.18-.09.1-.14.24-.24.34-.1.1-.13.26-.23.35-.1.09-.26.13-.36.22-.1.09-.24.13-.35.22-.11.09-.22.16-.33.24-.11.08-.17.23-.29.3-.11.08-.27.08-.39.15-.12.07-.17.25-.29.32-.12.07-.26.09-.39.15-.12.06-.29.01-.42.07-.13.05-.24.12-.37.16-.13.05-.22.2-.35.24-.13.04-.25.14-.38.18-.13.04-.27.04-.41.07-.13.03-.27.05-.41.07-.13.03-.27.05-.41.07-.13.02-.28-.05-.42-.04-.14.01-.27,0-.41.01-.14,0-.27.06-.41.07-.14,0-.27-.02-.41-.02s-.28.01-.42,0c-.14,0-.28.04-.42.03-.14-.01-.28,0-.42-.01-.14-.02-.28-.04-.42-.06-.14-.02-.25-.18-.39-.21-.14-.03-.3.06-.44.03-.13-.04-.29-.03-.42-.07-.13-.04-.21-.26-.34-.31-.13-.05-.26-.1-.38-.15-.13-.05-.27-.07-.4-.13-.13-.06-.26-.1-.38-.17-.12-.07-.27-.09-.39-.16-.12-.07-.16-.26-.28-.34-.12-.08-.24-.13-.36-.22-.11-.08-.29-.07-.4-.16-.11-.08-.26-.13-.36-.22-.11-.09-.09-.32-.19-.42-.1-.09-.33-.06-.43-.15-.1-.1-.1-.3-.19-.41-.1-.1-.23-.17-.32-.28-.09-.11-.17-.22-.26-.33-.09-.11-.14-.25-.22-.36-.08-.11-.24-.18-.32-.29-.08-.12-.22-.2-.29-.32-.07-.12-.09-.28-.15-.4-.07-.12-.17-.23-.24-.36-.06-.13-.12-.26-.17-.39-.06-.13-.12-.26-.17-.39-.05-.13,0-.3-.04-.44-.04-.13-.14-.25-.18-.39-.04-.14-.06-.28-.09-.41-.03-.14.06-.3.03-.44-.03-.14-.14-.26-.16-.4-.02-.14-.06-.28-.08-.42-.01-.14-.02-.28-.03-.42,0-.14.08-.28.08-.43,0-.14-.07-.28-.07-.42s-.04-.28-.04-.41c0-.14-.05-.28-.04-.42,0-.14.18-.26.2-.39.01-.14-.03-.28,0-.41.02-.14-.04-.29-.02-.42.03-.13.12-.25.15-.39.03-.13-.03-.29,0-.42.04-.13.19-.23.23-.36.04-.13-.03-.3.02-.43.05-.13.1-.26.16-.38.05-.13.2-.21.25-.34.06-.12.15-.23.21-.35.06-.12.04-.29.12-.41.07-.12.25-.16.33-.28.07-.11.12-.25.2-.36.08-.11.22-.17.3-.28.08-.11.15-.23.24-.33.09-.1.1-.28.19-.38.09-.1.25-.14.35-.24.1-.1.21-.17.31-.27.1-.09.13-.26.23-.35.1-.09.21-.17.32-.26.11-.09.29-.06.4-.14.11-.08.13-.29.24-.37.11-.08.23-.16.34-.23.12-.07.3-.03.42-.09.12-.07.18-.24.31-.3.12-.06.28-.05.4-.1.12-.05.23-.17.35-.22.13-.05.31.05.43,0,.13-.04.2-.26.34-.3.13-.04.28,0,.42-.04.13-.03.28,0,.41-.02.13-.03.26-.08.4-.1.13-.02.27-.04.4-.06.13-.01.27,0,.41-.02.14,0,.27.04.41.03.14,0,.27-.07.41-.07s.27.05.41.05c.14,0,.27-.03.41-.02.14,0,.28-.1.42-.08.14.02.25.22.38.24.14.02.28-.05.42-.02.13.03.24.15.37.18.13.03.3-.08.43-.04.13.04.23.18.36.22.13.04.24.11.37.16.13.05.3-.01.42.04.12.05.27.07.39.13.12.06.25.12.37.19.12.07.19.21.31.28.12.07.24.12.36.2.11.08.22.17.33.25.11.08.26.11.37.19.11.08.15.24.26.33.1.09.16.23.26.32.1.09.28.1.38.2.1.1.15.24.24.34.09.1.23.17.32.27.09.11.08.29.16.4.08.11.16.22.24.33.08.11.3.13.37.25.07.12.08.28.15.39.07.12.2.21.26.33.06.12.09.27.15.39.06.12.13.25.18.37.05.13.03.29.07.41.05.13.11.25.15.38.04.13.07.27.1.4.04.13,0,.28.04.41.03.13.26.23.28.36.02.13-.03.29,0,.42.02.14-.02.28,0,.42.01.14.08.27.09.41,0,.14-.03.28-.03.42,0,.14.04.27.04.41s-.07.28-.08.41c0,.14.02.28.01.41Z"/>
        <path d="M45.03,27.81c0-.21-.11-.21-.11-.42s-.06-.21-.06-.42.03-.21.03-.42.01-.21.01-.42,0-.21,0-.42.09-.21.09-.42.03-.21.03-.42-.05-.21-.05-.42.03-.21.03-.42-.02-.21-.02-.42-.06-.21-.06-.42-.03-.21-.03-.42,0-.21,0-.42.13-.21.13-.42-.13-.21-.13-.41-.05-.21-.05-.41.18-.21.18-.42,0-.21,0-.42-.05-.21-.05-.42-.02-.21-.02-.42-.06-.21-.06-.42.14-.21.14-.42-.02-.21-.02-.42-.11-.21-.11-.42-.06-.21-.06-.42.19-.21.19-.42-.18-.21-.18-.42.15-.21.15-.42-.04-.21-.04-.42.02-.21.02-.42.04-.21.04-.42-.09-.21-.09-.42-.07-.21-.07-.42.07-.21.07-.42-.05-.21-.05-.42,0-.21,0-.42.17-.22.02-.36c-.16-.15-.16-.09-.38-.09s-.22.06-.43.06-.22-.02-.43-.02-.22-.12-.43-.12-.21.09-.43.09-.21.02-.43.02-.21,0-.43,0-.22-.1-.43-.1-.29-.07-.45.07c-.14.13-.12.22-.06.43.05.19.06.17.06.37s-.03.19-.03.39-.04.19-.04.39.17.21.11.39c-.1-.1-.14-.27-.24-.37-.1-.1-.32-.07-.43-.16-.11-.09-.18-.23-.28-.32-.11-.09-.26-.12-.38-.2-.12-.08-.14-.3-.26-.37-.12-.08-.27-.1-.4-.17-.12-.07-.29-.06-.41-.12-.13-.06-.23-.18-.36-.24-.13-.05-.3,0-.43-.05-.13-.04-.23-.2-.37-.23-.14-.04-.3.06-.44.03-.14-.03-.27-.05-.41-.07-.14-.02-.27-.12-.41-.13-.14,0-.28-.05-.42-.05s-.28.1-.42.11c-.14,0-.29-.11-.43-.1-.14.01-.28.07-.42.09-.14.02-.3-.02-.43,0-.14.03-.27.09-.41.13-.14.04-.24.18-.37.23-.13.05-.3.01-.43.07-.13.05-.27.09-.4.15-.13.06-.2.22-.33.29-.12.07-.25.14-.36.21-.12.08-.31.05-.43.13-.11.08-.13.3-.24.39-.11.09-.21.18-.31.28-.1.09-.3.1-.4.2-.1.1-.11.29-.2.39-.1.11-.25.16-.34.27-.09.11-.12.26-.21.38-.08.11-.29.14-.37.26-.08.12,0,.34-.07.46-.07.12-.2.21-.27.33-.07.13-.19.22-.25.35-.06.13-.09.27-.14.41-.05.13-.1.27-.14.4-.05.13-.11.26-.15.4-.04.14-.13.26-.16.4-.03.14,0,.29-.03.43-.03.14-.09.27-.12.41-.02.14,0,.29-.01.43-.02.14.09.29.08.43-.01.14-.21.27-.21.41,0,.14.08.29.08.43s-.1.28-.09.41c0,.14.16.27.17.4,0,.14-.09.28-.07.41.01.14,0,.28.02.41.02.14.16.25.19.38.02.13.1.25.13.39.03.13.06.26.1.39.04.13-.01.28.03.41.04.13.11.25.15.38.05.13.08.26.13.38.05.13.18.22.23.34.06.12.04.28.1.4.06.12.08.27.15.39.07.12.25.17.32.28.07.11.1.26.18.37.08.11.21.18.29.29.08.11.08.29.17.39.1.11.19.22.29.32.1.1.32.08.43.17.11.1.16.25.27.34.11.09.26.12.38.21.12.08.21.2.33.27.12.08.25.14.37.21.13.07.22.21.35.27.13.06.27.1.4.16.13.05.27.11.4.16.14.04.26.15.4.18.14.04.32-.13.47-.1.14.03.26.13.41.15.14.02.28.1.42.11.14.01.29-.03.43-.03.14,0,.28.06.43.06.14,0,.27-.03.41-.04.14,0,.28.05.42.03.14-.02.27-.07.4-.1.13-.03.25-.12.38-.15.13-.03.3.05.43.01.13-.04.2-.24.33-.29.13-.05.25-.1.37-.16.12-.06.31.02.44-.04.12-.06.17-.25.29-.32.12-.07.31-.02.43-.09.11-.07.2-.19.31-.27.11-.08.2-.19.3-.28.11-.08.17-.22.27-.31.1-.09.15-.12.25-.21.06.21.15.19.15.41s-.07.22-.07.44.03.22.03.44-.1.21.05.37c.15.15.14.17.36.17s.22-.06.43-.06.22-.09.43-.09.22.08.43.08.21.06.43.06.21,0,.43,0,.21-.09.43-.09.22.08.43.08.24.04.39-.12c.15-.15.03-.17.03-.38s.11-.21.11-.42-.01-.21-.01-.42ZM41.25,21.18c0,.14,0,.28-.02.42-.02.14.02.29,0,.42-.02.14-.02.29-.05.42-.03.14-.07.27-.12.41-.04.13-.21.22-.26.35-.05.13,0,.31-.06.43-.06.12-.09.27-.17.39-.07.12-.3.13-.39.25-.08.11-.17.21-.26.32-.1.11-.16.24-.27.34-.11.1-.2.21-.31.29-.11.09-.2.22-.33.29-.12.07-.31.02-.44.08-.13.06-.25.13-.38.18-.13.05-.24.19-.38.23-.14.03-.27.12-.42.14-.14.02-.3-.15-.45-.14-.14.01-.28.19-.43.19s-.28-.16-.42-.17c-.14-.01-.28.01-.42,0-.14-.02-.27-.07-.4-.11-.14-.04-.25-.12-.38-.17-.13-.05-.29-.03-.42-.09-.12-.06-.29-.08-.4-.15-.12-.08-.19-.22-.3-.31-.11-.09-.25-.15-.35-.25-.1-.1-.2-.2-.29-.31-.09-.11-.19-.22-.27-.33-.08-.11-.07-.29-.14-.41-.07-.12-.19-.21-.25-.34-.06-.12-.1-.26-.16-.39-.05-.13.01-.3-.03-.43-.04-.13-.16-.24-.2-.38-.03-.13-.08-.27-.11-.41-.02-.14-.04-.28-.05-.42-.01-.14.08-.28.07-.43,0-.14-.07-.27-.07-.42s-.03-.27-.02-.41c0-.14.09-.27.1-.4.02-.14,0-.27.03-.41.02-.14-.01-.28.02-.41.03-.13.2-.22.24-.35.04-.13-.06-.31,0-.44.05-.13.12-.25.18-.37.06-.12.27-.16.34-.28.07-.12.04-.3.12-.41.08-.11.28-.12.37-.22.09-.11.15-.23.25-.33.1-.1.18-.22.29-.3.11-.09.18-.23.3-.3.12-.08.31-.03.43-.09.12-.06.19-.26.32-.31.13-.05.29-.03.42-.07.13-.04.26-.1.4-.12.14-.02.27-.12.41-.13.14-.01.29.18.43.18s.29-.06.43-.05c.15.01.3-.07.44-.04.14.02.27.13.4.17.14.04.25.13.39.18.13.05.26.1.39.17.13.06.29.05.41.13.12.08.19.22.3.31.11.09.3.08.41.18.1.1.17.23.27.34.09.11.09.28.17.39.08.11.17.22.24.33.07.12.24.18.3.31.06.12.18.23.23.36.05.13.07.27.12.41.04.13.07.27.1.41.03.13.07.27.09.41.02.14-.04.29-.03.43.02.14,0,.28,0,.42,0,.14.06.27.06.42s-.03.28-.04.42Z"/>
        <path d="M53.8,12.42c-.22,0-.22-.09-.43-.09s-.21-.02-.43-.02-.21.11-.43.11-.21,0-.43,0-.21-.13-.43-.13-.32.29-.47.15c-.15-.14-.03-.25-.03-.46s.13-.21.13-.41-.12-.2-.12-.41.08-.2.08-.41-.07-.2-.07-.41.15-.2.15-.41-.18-.2-.18-.41.07-.2.07-.41.07-.2.07-.41-.03-.2-.03-.41,0-.2,0-.41.02-.2.02-.41.05-.2.05-.41-.06-.2-.06-.41.17-.32.02-.46c-.16-.15-.26.03-.48.03s-.22.12-.43.12-.21-.19-.43-.19-.21.09-.43.09-.21-.1-.43-.1-.21.15-.43.15-.21-.11-.43-.11-.21-.03-.43-.03-.25-.03-.4.11c-.15.14.06.18.06.39s0,.21,0,.41-.09.2-.09.41.02.2.02.41-.01.2-.01.41.08.2.08.41-.09.2-.09.41-.06.2-.06.41.12.2.12.41-.06.2-.06.41.06.2.06.41-.13.2-.13.41,0,.2,0,.41.17.2.17.41.07.27-.08.41c-.15.14-.21.07-.42.07s-.21-.04-.41-.04-.21.01-.41.01-.29-.21-.44-.07c-.14.14,0,.23,0,.43s-.01.2-.01.4-.06.2-.06.4.2.2.2.4-.07.2-.07.4-.06.2-.06.4.06.2.06.4-.05.2-.05.4-.12.26.03.4c.15.14.2.07.41.07s.21-.03.41-.03.21-.07.41-.07.2-.05.34.1c.15.15.14.15.14.36s0,.21,0,.43-.16.21-.16.43.14.21.14.43-.15.21-.15.42.05.21.05.42.04.21.04.42.07.21.07.42-.14.21-.14.42.15.21.15.42-.07.21-.07.42.03.21.03.42.08.21.08.42-.2.21-.2.42.06.21.06.42.09.21.09.42-.08.21-.08.42-.06.21-.06.42,0,.21,0,.42.09.21.09.42-.08.21-.08.42.13.21.13.42-.04.21-.04.42-.11.21-.11.42.01.21.01.42.11.21.11.42.06.21.06.42-.03.21-.03.42-.01.21-.01.42,0,.21,0,.42-.23.31-.08.45c.15.15.25.04.46.04s.22-.05.43-.05.21.03.43.03.21-.02.43-.02.21-.06.43-.06.21-.03.43-.03.21,0,.43,0,.21.13.43.13.24.04.39-.11c.15-.15-.06-.17-.06-.39s.18-.21.18-.43,0-.21,0-.43-.05-.21-.05-.43-.02-.21-.02-.42-.06-.21-.06-.42.14-.21.14-.42-.02-.21-.02-.42-.11-.21-.11-.42-.06-.21-.06-.42.19-.21.19-.42-.18-.21-.18-.42.15-.21.15-.42-.04-.21-.04-.42.02-.21.02-.42.04-.21.04-.42-.09-.21-.09-.42-.07-.21-.07-.42.07-.21.07-.42-.05-.21-.05-.42,0-.21,0-.42,0-.21,0-.42.11-.21.11-.42-.06-.21-.06-.42.02-.21.02-.42.12-.21.12-.42-.09-.21-.09-.42-.02-.21-.02-.42,0-.21,0-.42.1-.21.1-.42-.22-.25-.07-.4c.15-.15.21-.14.43-.1.21.04.2.16.42.16s.21-.06.43-.06.21-.09.43-.09.21.07.43.07.21-.1.43-.1.29.26.45.11c.15-.14-.12-.22-.12-.42s0-.2,0-.4.09-.2.09-.4.03-.2.03-.4-.1-.2-.1-.4.13-.2.13-.4-.04-.2-.04-.4.07-.2.07-.4.1-.31-.05-.45c-.16-.15-.26.09-.48.09Z"/>
        <path d="M69.32,19.69c0-.21-.2-.21-.2-.43s.07-.21.07-.43c0-.14.06-.28.05-.42,0-.14-.06-.28-.07-.42,0-.14.03-.28.02-.42-.01-.14-.05-.28-.07-.41-.02-.14.03-.29,0-.42-.02-.14-.08-.27-.11-.4-.03-.14-.13-.26-.16-.39-.04-.14.05-.31,0-.44-.04-.13-.24-.21-.29-.34-.05-.13-.11-.25-.17-.38-.06-.13,0-.32-.06-.44-.07-.12-.26-.16-.34-.27-.08-.11-.06-.32-.15-.42-.1-.1-.23-.18-.33-.27-.1-.1-.23-.16-.34-.25-.11-.09-.26-.12-.38-.19-.12-.08-.16-.27-.28-.34-.12-.07-.32,0-.44-.06-.13-.06-.22-.18-.36-.23-.13-.05-.27-.07-.41-.11-.13-.04-.28,0-.42-.03-.13-.03-.23-.26-.37-.28-.14-.02-.29.02-.43,0-.14-.01-.28.07-.43.06-.14,0-.28-.09-.42-.09s-.28-.05-.42-.04c-.14,0-.28.02-.42.04-.14.02-.26.13-.4.15-.14.03-.29-.02-.43.02-.13.04-.23.2-.36.25-.13.05-.27.05-.4.11-.13.05-.3.01-.43.07-.12.06-.25.14-.37.21-.12.07-.18.24-.3.32-.12.08-.19.2-.31.29-.11.08-.24.14-.35.23-.11.09-.29.15-.39.24-.06-.2,0-.22,0-.43s.09-.21.09-.42.03-.21.03-.42-.05-.21-.05-.42.03-.21.03-.41-.02-.21-.02-.41-.06-.21-.06-.41-.03-.21-.03-.42,0-.21,0-.41.13-.21.13-.41-.13-.21-.13-.42-.05-.21-.05-.41.18-.21.18-.41,0-.21,0-.41-.05-.21-.05-.41-.02-.21-.02-.41-.06-.21-.06-.41.14-.21.14-.41-.02-.21-.02-.41-.11-.21-.11-.41-.06-.21-.06-.41.19-.21.19-.41-.18-.21-.18-.41.15-.21.15-.41-.04-.21-.04-.41.02-.21.02-.41.04-.21.04-.41-.09-.21-.09-.41-.07-.21-.07-.41.07-.21.07-.41-.05-.21-.05-.41,0-.21,0-.41.16-.21.02-.36c-.16-.15-.16-.09-.38-.09s-.22.06-.43.06-.21-.02-.43-.02-.21-.12-.43-.12-.21.09-.43.09-.21.02-.43.02-.21,0-.43,0-.21-.1-.43-.1-.3-.08-.45.07c-.15.15-.1.23-.05.46.05.21.12.2.12.41s-.08.21-.08.42.12.21.12.42-.14.21-.14.42-.03.21-.03.42.07.21.07.42.05.21.05.42-.06.21-.06.42.12.21.12.42-.04.21-.04.42-.06.21-.06.42-.09.21-.09.42.02.21.02.42.07.21.07.42.09.21.09.42,0,.21,0,.42-.16.21-.16.42.15.21.15.42-.08.21-.08.42,0,.21,0,.42-.07.21-.07.42.06.21.06.42.06.21.06.42,0,.21,0,.42,0,.21,0,.42,0,.21,0,.42-.02.21-.02.42,0,.21,0,.42.05.21.05.42-.19.21-.19.42,0,.21,0,.42,0,.21,0,.42.02.21.02.42.01.21.01.42.13.21.13.42,0,.21,0,.42,0,.21,0,.42-.16.21-.16.42.16.21.16.42,0,.21,0,.42-.09.21-.09.42.08.21.08.42-.12.21-.12.42-.02.21-.02.42.02.21.02.42-.04.21-.04.42.12.21.12.42,0,.21,0,.42-.03.21-.03.42-.09.21-.09.42.17.21.17.42.01.21.01.42-.14.21-.14.42.03.21.03.42.1.21.1.42-.07.21-.07.42-.08.21-.08.42.13.21.13.42-.1.21-.1.42.09.21.09.42-.12.21-.12.42.02.21.02.42.07.21.07.42-.09.21-.09.42.17.21.17.42-.04.21-.04.42-.15.21-.15.42-.11.32.04.47c.15.15.26-.02.48-.02s.22-.11.43-.11.21.07.43.07.21.08.43.08.21-.05.43-.05.21-.04.43-.04.21.1.43.1.21.02.43.02.28.06.43-.09c.15-.15.09-.22.09-.44s0-.21,0-.43-.17-.21-.17-.43.1-.21.1-.43-.06-.21-.06-.42-.04-.21-.04-.43,0-.21,0-.43,0-.21,0-.43.17-.21.17-.43-.08-.21-.08-.43-.02-.21-.02-.43.02-.21.02-.42.06-.21.06-.42-.05-.21-.05-.42-.05-.21-.05-.43-.06-.21-.06-.42.16-.21.16-.42-.13-.21-.13-.42-.04-.21-.04-.42c0-.14-.02-.28-.02-.41,0-.14.03-.28.03-.41,0-.14.12-.27.13-.4,0-.14.09-.27.1-.4.01-.14-.09-.29-.08-.42.02-.14-.03-.28,0-.41.02-.14.05-.27.08-.4.03-.14.22-.23.25-.36.04-.14.07-.26.11-.38.05-.13-.02-.31.03-.43.06-.13.25-.18.32-.29.08-.11.11-.25.2-.35.09-.1.21-.16.32-.25.11-.08.23-.11.35-.18.12-.06.18-.22.31-.27.12-.05.28.01.41-.02.13-.03.23-.23.36-.25.13-.02.27.03.41.02.13,0,.27-.08.41-.08.15,0,.28.17.42.18.15.01.29-.03.42,0,.14.03.31-.02.43.03.14.05.24.17.36.24.13.07.31.07.41.16.11.09.13.28.21.39.09.11.27.17.34.3.06.12.12.27.18.41.05.13,0,.3.04.45.03.14.03.28.05.43.02.14.14.27.15.42.01.14-.11.29-.1.44,0,.14.05.28.05.43,0,.21-.07.21-.07.42s.03.21.03.42.11.21.11.41-.09.21-.09.41-.02.21-.02.41.11.21.11.41,0,.21,0,.41-.13.21-.13.41.16.21.16.41,0,.21,0,.41-.13.21-.13.41.12.21.12.41-.08.21-.08.41.07.21.07.41-.15.21-.15.41.18.21.18.41-.07.2-.07.41-.07.2-.07.41.03.2.03.41,0,.21,0,.41-.02.21-.02.41-.05.21-.05.41.06.21.06.41-.17.32-.02.46c.16.15.26-.03.48-.03s.22-.12.43-.12.21.19.43.19.21-.09.43-.09.21.1.43.1.21-.15.43-.15.21.11.43.11.21.03.43.03.25.04.4-.11c.15-.15-.06-.19-.06-.41s0-.22,0-.43.09-.21.09-.43-.02-.21-.02-.43.01-.21.01-.43-.08-.21-.08-.43.09-.21.09-.43.06-.21.06-.43-.12-.21-.12-.43.06-.21.06-.43-.06-.21-.06-.43.13-.21.13-.43,0-.21,0-.43-.17-.21-.17-.43.08-.21.08-.43-.07-.21-.07-.43.04-.21.04-.42-.01-.21-.01-.42.08-.21.08-.42-.02-.21-.02-.43.01-.21.01-.43.06-.21.06-.43Z"/>
        <path d="M105.8,27.85c-.23,0-.23.1-.45.1s-.23-.13-.45-.13-.23.04-.45.04-.22-.07-.45-.07-.24.2-.4.05c-.15-.14-.09-.16-.09-.37s.09-.21.09-.41.02-.21.02-.41-.11-.21-.11-.41,0-.21,0-.41.13-.21.13-.41-.16-.21-.16-.41,0-.21,0-.41.13-.21.13-.41-.12-.21-.12-.41.08-.21.08-.41-.07-.2-.07-.41.15-.2.15-.41-.18-.2-.18-.41.07-.21.07-.41.07-.2.07-.41-.03-.2-.03-.41,0-.2,0-.41.02-.2.02-.41.05-.2.05-.41-.06-.2-.06-.41.04-.2.04-.41-.04-.21-.04-.41-.12-.2-.12-.41.19-.2.19-.41c0-.14-.09-.27-.1-.4,0-.14.08-.28.07-.41-.02-.14-.18-.25-.21-.38-.02-.13.05-.29.02-.42-.03-.13-.05-.27-.09-.4-.05-.13-.21-.21-.27-.32-.06-.12-.16-.21-.23-.32-.07-.11-.14-.21-.23-.32-.08-.1-.11-.26-.2-.35-.1-.09-.21-.16-.32-.25-.11-.08-.21-.17-.32-.24-.11-.07-.26-.07-.38-.14-.12-.06-.2-.2-.32-.25-.12-.05-.23-.16-.35-.21-.12-.04-.29.03-.42,0-.13-.04-.24-.12-.38-.15-.13-.03-.27,0-.4-.01-.13-.02-.25-.16-.38-.17-.13-.01-.27-.03-.41-.04-.13,0-.27.16-.41.16-.15,0-.3-.07-.44-.07-.15,0-.29.08-.43.1-.15.02-.3,0-.44.02-.15.03-.29.07-.42.1-.14.04-.31,0-.44.04-.14.05-.27.12-.4.18-.13.06-.26.11-.39.17-.13.07-.28.08-.4.15-.12.07-.13.32-.24.4-.12.08-.27.1-.38.19-.11.09-.26.14-.36.23-.11.1-.17.25-.27.35-.1.11-.24.19-.33.3-.1.12-.16.25-.24.37-.09.12-.22.21-.3.34-.08.13-.12.28-.19.4-.08.14-.09.3-.15.42-.07.14-.23.19-.29.3-.03.02-.07.11-.07.08-.03-.21,0-.22,0-.43s.16-.21.16-.42-.14-.21-.14-.42.15-.21.15-.42-.05-.21-.05-.42-.04-.21-.04-.42-.07-.21-.07-.42.14-.21.14-.42.01-.22-.13-.37c-.14-.15-.16-.05-.36-.05s-.2.03-.41.03-.2.08-.41.08-.2-.2-.4-.2-.2.06-.4.06-.2.09-.4.09-.2-.08-.4-.08-.2-.06-.4-.06-.2,0-.4,0-.2.09-.4.09-.2-.08-.4-.08-.2.13-.4.13-.2-.04-.4-.04-.35-.23-.48-.08c-.16.19-.15.43.01.62.15.17.29-.08.52-.08s.23-.06.45-.06.23.03.45.03.23.01.45.01.22,0,.45,0,.26-.08.42.08c.15.14-.04.18-.04.39s.05.21.05.42-.03.21-.03.42.02.21.02.42.06.21.06.41.03.21.03.42,0,.21,0,.42-.13.21-.13.42.13.21.13.41.05.21.05.41-.18.21-.18.42,0,.21,0,.41.05.21.05.41.02.21.02.41.06.21.06.42-.14.21-.14.41.02.21.02.41.11.21.11.41.06.21.06.41-.19.21-.19.41.18.21.18.41-.15.21-.15.41.04.21.04.41-.02.21-.02.41-.04.21-.04.41.09.21.09.41.07.21.07.41-.07.21-.07.41.05.21.05.41,0,.21,0,.41,0,.21,0,.41-.11.21-.11.41.06.21.06.41.13.28-.02.42c-.17.15-.24-.11-.46-.11s-.23.09-.45.09-.23.02-.45.02c-.1,0-.16,0-.21,0-.04-.05-.08-.1-.12-.15-.09-.1-.14-.2-.2-.38-.04-.13-.23-.26-.25-.44-.01-.14.08-.31.08-.48,0-.21-.06-.21-.06-.42s-.04-.21-.04-.42,0-.21,0-.42,0-.21,0-.42.17-.21.17-.42-.08-.21-.08-.42-.02-.21-.02-.42.02-.21.02-.42.06-.21.06-.42-.05-.21-.05-.42-.05-.21-.05-.42-.06-.21-.06-.42.16-.21.16-.41-.13-.21-.13-.42-.04-.21-.04-.42-.02-.21-.02-.42.02-.21.02-.41.11-.21.11-.41.07-.21.07-.41-.12-.21-.12-.42-.07-.21-.07-.42c0-.15,0-.3-.01-.45-.01-.15.13-.32.11-.47-.02-.15-.06-.31-.09-.46-.04-.15-.2-.26-.25-.41-.05-.15.03-.34-.03-.48-.06-.14-.19-.25-.27-.38-.08-.13-.14-.28-.24-.4-.09-.12-.17-.27-.28-.38-.1-.1-.28-.11-.38-.2-.11-.09-.16-.26-.28-.33-.11-.08-.32,0-.45-.07-.12-.07-.21-.18-.34-.24-.12-.06-.27-.05-.41-.1-.12-.04-.19-.24-.32-.28-.12-.04-.27,0-.4-.04-.12-.03-.27.03-.4.01-.13-.02-.25-.11-.38-.12-.13-.01-.27.07-.4.06-.13,0-.25-.14-.39-.14-.13,0-.26.12-.39.12s-.27,0-.4,0c-.14,0-.27-.08-.4-.07-.14.01-.27,0-.4,0-.13.02-.25.14-.38.16-.13.02-.29-.08-.42-.05-.13.03-.25.11-.38.14-.13.04-.28.01-.39.06-.12.05-.24.12-.35.18-.12.05-.19.21-.3.27-.12.06-.27.05-.38.12-.11.07-.23.13-.33.21-.11.09-.14.26-.24.35-.1.1-.19.19-.28.29-.09.11-.28.14-.35.25-.08.11,0,.32-.06.44-.06.12-.1.23-.14.35-.04.12-.21.2-.24.33-.03.12.07.27.05.4-.01.13-.1.25-.1.37s.07.25.09.37c.02.13-.1.3-.06.41.04.12.26.16.33.26.06.1.1.21.23.27.1.05.21.15.35.18.11.02.25,0,.39.02.12,0,.25,0,.39,0,.13,0,.26.01.37,0,.13-.02.28-.01.38-.06.12-.05.2-.18.29-.26.12-.11.25-.23.31-.37.06-.14.05-.31.05-.48,0-.11-.13-.24-.15-.42-.02-.13.15-.3.12-.46-.02-.13-.13-.24-.15-.37-.02-.13.07-.27.06-.4,0-.13-.16-.26-.16-.39,0-.14.12-.26.15-.39.03-.14.09-.23.16-.34.06-.12.05-.29.15-.38.09-.09.19-.21.31-.28.11-.06.24-.12.37-.17.12-.04.28,0,.41-.03.12-.03.25-.08.38-.1.13-.02.26-.02.4-.03.13,0,.26-.09.4-.09.17,0,.33.1.48.11.17.02.31.1.46.13.17.04.36-.03.49.04.11.05.19.17.29.24.1.07.23.11.31.2.08.09.05.26.12.37.07.11.11.23.16.35.05.12.25.2.29.33.03.13-.01.28,0,.42.02.12.1.24.12.37.01.12-.02.25-.01.38,0,.12.03.25.03.38,0,.12-.08.25-.08.38,0,.15.01.29.01.42,0,.15-.03.29-.04.42-.01.15-.09.27-.11.4-.02.15.15.33.12.45-.03.13-.15.24-.2.36-.05.12-.17.21-.24.32-.08.11-.12.24-.21.34-.1.1-.25.15-.39.24-.12.08-.24.18-.38.25-.13.06-.3.06-.45.11-.12.04-.23.12-.37.17-.12.04-.22.15-.36.2-.12.04-.29-.03-.43.01-.12.04-.2.24-.33.28-.12.04-.25.08-.39.13-.13.04-.31-.07-.44-.02-.13.04-.22.21-.35.25-.13.04-.3-.06-.43-.02-.13.04-.25.12-.38.16-.13.04-.25.11-.38.15-.12.04-.22.14-.34.18-.12.04-.29-.05-.41,0-.12.05-.18.23-.29.28-.12.05-.26.04-.37.1-.11.06-.21.14-.32.2-.13.07-.21.21-.32.3-.12.09-.36.02-.47.12-.11.1-.17.25-.27.37-.09.11-.11.28-.19.41-.07.11-.21.19-.27.32-.05.12-.16.24-.2.37-.04.13-.07.27-.1.41-.02.13.05.28.04.42,0,.13-.1.27-.1.41,0,.12.14.25.15.38.01.12-.01.25.01.38.02.12-.06.28-.03.4.04.14.1.29.16.42.06.13.23.2.32.32.08.11.22.18.32.28.09.09.16.2.28.28.1.08.2.16.32.23.11.07.23.12.36.18.12.05.21.19.34.24.12.04.24.11.37.15.12.03.27.02.4.04.13.02.26.07.39.09.13.02.26.01.4.02.13,0,.26-.04.4-.03.13,0,.26-.03.4-.03.15,0,.29,0,.43,0,.15,0,.3.11.44.1.15-.01.28-.16.41-.18.15-.02.27-.1.41-.13.15-.04.34.1.47.05.13-.04.25-.09.37-.14.12-.05.22-.15.33-.21.12-.06.22-.15.32-.22.11-.07.18-.2.27-.28.1-.09.3-.08.39-.18.1-.1.17-.22.25-.33.08-.11.06-.28.12-.4.07-.14.09-.3.15-.42.07-.15.28-.17.34-.29.03-.02.06-.15.08-.12.03.13-.07.32-.04.44.04.13.12.24.16.35.05.12.08.25.14.36.06.12.09.25.15.36.07.11.22.16.3.26.08.1.22.14.31.23.1.1.17.23.29.31.12.07.26.09.4.14.13.05.26.09.4.13.13.03.27.05.42.07.14.02.27.14.42.15.14,0,.29-.05.44-.05.14,0,.27.01.39,0,.14,0,.28.09.41.07.13-.02.25-.14.37-.17.13-.04.25-.1.36-.15.13-.06.26-.11.38-.17.02,0,.04-.01.06-.02.08-.01.13-.03.28-.03.21,0,.21.07.42.07s.21,0,.42,0,.21-.12.42-.12.21.08.42.08.21-.12.42-.12.21.14.42.14.21.03.42.03.21-.07.42-.07.21-.05.42-.05.21.06.42.06.21-.12.42-.12.23.22.37.06c.16-.19.21-.27.05-.45-.15-.17-.22-.09-.45-.09s-.23.02-.45.02-.23.07-.45.07-.23.09-.45.09-.22,0-.45,0-.25.01-.41-.14c-.15-.14-.14-.17-.14-.38s.08-.21.08-.42,0-.21,0-.42.07-.21.07-.42-.06-.21-.06-.42-.06-.21-.06-.42,0-.21,0-.42,0-.21,0-.42,0-.21,0-.42.02-.21.02-.42,0-.21,0-.42-.05-.21-.05-.42.19-.21.19-.42,0-.21,0-.42,0-.21,0-.42-.02-.21-.02-.42-.01-.21-.01-.42-.13-.21-.13-.41,0-.21,0-.41c0-.15,0-.3,0-.45,0-.15.18-.28.19-.43.02-.15-.12-.31-.1-.46.02-.15.04-.3.08-.44.03-.14.16-.27.2-.41.04-.14.01-.31.06-.45.05-.13.21-.21.26-.33.05-.12.13-.24.19-.35.06-.12.1-.25.17-.36.07-.12.17-.2.25-.31.07-.11.05-.29.13-.4.08-.11.17-.21.26-.31.1-.11.23-.2.34-.31.11-.11.28-.14.39-.24.12-.1.13-.33.25-.41.12-.09.25-.19.38-.26.13-.08.33-.02.47-.09.13-.06.26-.15.39-.2.14-.05.25-.19.39-.23.14-.04.31,0,.45-.03.14-.03.3.03.45.02.15-.01.29-.15.44-.15.16,0,.31.11.45.13.16.02.33-.04.47,0,.15.04.25.21.38.28.14.07.26.13.38.23.11.1.26.16.36.29.08.11.07.26.14.38.06.11.27.16.32.29.05.12.06.27.09.4.03.12-.09.28-.06.42.02.13.05.25.06.39,0,.13.05.26.05.39,0,.21.11.21.11.42s-.07.21-.07.42-.08.21-.08.42.05.21.05.42.04.21.04.42-.1.21-.1.42-.02.21-.02.42.09.21.09.42-.09.21-.09.42,0,.21,0,.42.17.21.17.42-.1.21-.1.42.06.21.06.42.04.21.04.42,0,.21,0,.42,0,.21,0,.42-.17.21-.17.42.08.21.08.42.02.21.02.42-.02.21-.02.42-.06.21-.06.42.05.21.05.42.05.21.05.42.06.21.06.42-.16.21-.16.42.13.21.13.42.17.34.01.48c-.17.15-.28.04-.51.04s-.23-.02-.45-.02-.23-.11-.45-.11-.23-.07-.45-.07-.22.12-.45.12-.23-.13-.38.04c-.17.18-.16.18,0,.37.14.16.15.13.36.13s.21,0,.43,0,.21-.13.42-.13.21.14.42.14.21-.06.42-.06.21.03.42.03.21.04.42.04.21-.11.42-.11.21.1.42.1.21-.17.42-.17.21.06.42.06.21-.07.42-.07.21.16.42.16.21-.06.42-.06.21-.09.42-.09.21.07.42.07.21-.1.42-.1.21.12.42.12.21-.12.42-.12.21.2.35.04c.16-.19.24-.25.07-.43-.15-.17-.23-.03-.45-.03ZM84.06,20.65c0,.22.06.22.06.44s.09.22.09.44-.08.22-.08.44-.06.22-.06.44,0,.22,0,.44.09.22.09.44c0,.13-.08.25-.09.39,0,.13.12.27.11.4-.01.13-.07.25-.08.39-.01.13-.14.24-.16.37-.02.14-.03.27-.06.41-.03.14.04.3,0,.43-.04.13-.03.29-.08.42-.05.13-.14.25-.2.38-.06.12-.15.24-.22.36-.08.11-.16.23-.26.33-.09.1-.25.14-.36.23-.1.09-.22.15-.34.23-.11.07-.19.18-.31.23-.12.05-.24.08-.37.11-.12.04-.24.08-.38.11-.13.02-.25.09-.38.11-.13.01-.26.05-.4.05-.16,0-.32,0-.46-.03-.16-.02-.28-.17-.42-.21-.15-.04-.34.02-.47-.05-.11-.06-.24-.09-.34-.16-.1-.07-.07-.29-.15-.38-.08-.09-.15-.17-.21-.27-.06-.1-.16-.18-.21-.29-.05-.11-.11-.21-.15-.33-.03-.11-.12-.22-.14-.34-.02-.12.09-.26.08-.38-.02-.12-.05-.24-.06-.36,0-.12-.12-.24-.12-.36,0-.15-.05-.3-.04-.44.01-.15.22-.26.25-.4.03-.14-.1-.33-.06-.47.05-.14.24-.22.31-.34.07-.13.1-.27.19-.39.08-.12.19-.21.29-.32.1-.1.23-.17.34-.26.11-.09.17-.25.3-.33.12-.08.21-.22.35-.28.13-.06.29-.07.43-.12.19-.08.17-.12.36-.2s.19-.07.38-.15c.19-.08.19-.08.37-.16.19-.08.23.02.42-.05.19-.07.16-.13.35-.21.19-.08.19-.06.38-.14.19-.08.23.03.42-.04.13-.05.21-.19.32-.24.13-.06.22-.15.32-.21.12-.08.22-.15.3-.23.1-.1.22-.15.25-.24.04.14.11.17.11.36,0,.22-.2.22-.2.44Z"/>
        <path d="M121.99,27.85c-.23,0-.23.06-.45.06s-.23-.05-.45-.05-.23.03-.45.03-.22-.07-.45-.07-.26.2-.43.04c-.15-.15-.06-.19-.06-.4s.13-.21.13-.43-.16-.21-.16-.43,0-.21,0-.42.16-.21.16-.42-.14-.21-.14-.42.15-.21.15-.42-.05-.21-.05-.42-.04-.21-.04-.42-.07-.21-.07-.42.14-.21.14-.42-.15-.21-.15-.42.07-.21.07-.42-.03-.21-.03-.42-.08-.21-.08-.42.2-.21.2-.42-.06-.21-.06-.42-.09-.21-.09-.42.08-.21.08-.42.06-.21.06-.42,0-.21,0-.42-.09-.21-.09-.42.08-.21.08-.42-.13-.21-.13-.42.04-.21.04-.42.11-.21.11-.42-.01-.21-.01-.42-.11-.21-.11-.42-.06-.21-.06-.42.03-.21.03-.42.01-.21.01-.42,0-.21,0-.42.09-.21.09-.42.03-.21.03-.42-.05-.21-.05-.42.03-.21.03-.42-.02-.21-.02-.42-.06-.21-.06-.42-.03-.21-.03-.42,0-.21,0-.42.13-.21.13-.42-.13-.21-.13-.42-.05-.21-.05-.42.18-.21.18-.42,0-.21,0-.42-.05-.21-.05-.42-.02-.21-.02-.42-.06-.21-.06-.42.14-.21.14-.42-.02-.21-.02-.42-.11-.21-.11-.42-.06-.21-.06-.42.19-.21.19-.42-.18-.21-.18-.42.15-.21.15-.42-.04-.21-.04-.42.02-.21.02-.42.04-.21.04-.42.06-.26-.09-.41c-.14-.15-.19.08-.4.08s-.21-.07-.41-.07-.21.05-.41.05-.2,0-.41,0-.2,0-.41,0-.2-.11-.41-.11-.2.06-.41.06-.2-.02-.41-.02-.2-.12-.41-.12-.2.09-.41.09-.2.02-.41.02-.2,0-.41,0-.2-.1-.41-.1-.3-.08-.43.07c-.16.19-.25.46-.01.58.2.1.26-.15.49-.15s.23,0,.45,0,.23.09.45.09.23-.08.45-.08.22.12.45.12.24-.15.4,0c.15.15,0,.16,0,.38s-.04.21-.04.42.12.21.12.42,0,.21,0,.42-.03.21-.03.42-.09.21-.09.42.17.21.17.42.01.21.01.42-.14.21-.14.42.03.21.03.42.1.21.1.42-.07.21-.07.42-.08.21-.08.42.13.21.13.42-.1.21-.1.42.09.21.09.42-.12.21-.12.42.02.21.02.42.07.21.07.42-.09.21-.09.42.17.21.17.42-.04.21-.04.42-.15.21-.15.42.02.21.02.42.04.21.04.42.11.21.11.42-.07.21-.07.42-.08.21-.08.42.05.21.05.42.07.22.04.42c0,.03,0-.03-.03-.06-.05-.13-.07-.25-.13-.37-.06-.13-.2-.22-.26-.34-.07-.12-.07-.29-.15-.4-.08-.11-.17-.23-.25-.34-.09-.11-.3-.1-.4-.21-.09-.1-.12-.27-.22-.36-.1-.09-.24-.14-.35-.23-.11-.09-.24-.13-.36-.2-.12-.07-.23-.14-.36-.2-.12-.06-.25-.11-.38-.16-.13-.05-.21-.26-.34-.29-.13-.04-.29,0-.43-.02-.13-.03-.27-.02-.42-.04-.14-.02-.27-.05-.41-.06-.14,0-.28-.07-.42-.07s-.28.05-.42.06c-.14,0-.28.07-.41.09-.14.02-.27.1-.4.12-.14.03-.31-.1-.45-.07-.14.04-.24.2-.37.24-.13.04-.25.13-.38.18-.13.05-.24.13-.37.19-.13.06-.25.11-.38.17-.12.07-.3.05-.41.12-.12.07-.28.09-.39.17-.11.08-.16.26-.27.35-.11.09-.17.22-.28.31-.11.09-.21.18-.31.27-.1.1-.32.08-.41.18-.1.1-.19.22-.29.33-.09.11-.08.3-.17.42-.09.11-.29.15-.37.26-.08.12-.11.27-.18.4-.07.12-.18.23-.24.36-.07.13-.17.24-.23.37-.06.13-.02.31-.07.44-.06.14-.21.24-.26.38-.05.14.07.33.03.47-.04.14-.14.27-.17.41-.03.14,0,.3-.02.44-.02.15-.21.27-.22.42-.02.15.03.3.02.45,0,.15.07.3.07.44,0,.13-.07.26-.06.39,0,.13.11.25.13.38.01.13-.09.27-.07.4.02.13.16.24.19.37.03.13.05.25.08.38.03.13-.02.28.02.4.04.13.05.26.09.39.04.12.19.21.24.33.06.14,0,.32.06.46.06.13.17.25.24.38.07.13.08.3.16.42.08.13.18.24.27.36.08.12.26.18.35.3.09.12.11.29.21.4.09.11.18.24.28.35.1.11.28.14.38.24.1.1.21.2.32.3.11.1.14.29.25.38.11.09.33.04.45.13.12.08.24.15.36.23.12.08.18.26.31.33.13.07.31.03.44.09.13.06.23.19.36.25.13.05.29.04.43.09.14.05.23.23.37.27.14.04.32-.11.46-.08.14.03.27.12.41.14.14.02.28.1.43.11.14,0,.29-.02.44-.02s.28-.01.42-.02c.14,0,.28,0,.42-.02.14-.02.29,0,.42-.03.14-.03.26-.13.39-.18.13-.05.28-.06.41-.12.13-.06.24-.17.35-.24.12-.07.18-.25.29-.32.12-.08.34-.02.45-.11.11-.09.15-.26.25-.36.11-.12.3-.17.39-.3.1-.13.08-.35.16-.48.09-.14.26-.22.33-.36.06-.12.13-.22.18-.33.05-.12-.01-.28.03-.39.05-.12.06-.28.1-.39.02-.02.21.01.21.04.03.22-.09.23-.09.45s.02.22.02.44-.01.22-.01.44.08.22.08.44-.09.22-.09.43-.06.22-.06.44-.04.24.11.4c.14.15.17.04.37.04s.2-.06.41-.06.2.13.41.13.2,0,.4,0,.2-.17.4-.17.2.08.4.08.2-.07.4-.07.2.04.4.04.2-.01.4-.01.2.08.4.08.2-.02.4-.02.2.01.4.01.2.06.4.06.2-.01.32-.17c.16-.19.23-.23.06-.41-.15-.17-.21-.05-.43-.05ZM116.73,21.49c0,.13-.11.26-.12.4,0,.13,0,.26,0,.4,0,.13.1.27.09.41,0,.13.04.27.03.4-.01.13-.06.26-.07.4-.02.13-.05.26-.07.4-.02.13-.04.26-.06.39-.02.13-.14.24-.17.36-.03.13-.09.24-.13.37-.04.13-.03.26-.07.38-.04.12-.11.23-.16.35-.05.12-.09.24-.14.36-.06.13-.09.28-.16.41-.08.12-.13.26-.22.38-.09.12-.19.23-.28.33-.1.1-.29.11-.4.21-.11.09-.14.28-.26.37-.11.08-.22.2-.34.26-.12.06-.32-.05-.45,0-.13.05-.25.08-.39.12-.13.03-.25.1-.39.12-.13.02-.27.06-.41.06-.13,0-.27.07-.42.07s-.26-.14-.39-.15c-.14,0-.27,0-.39-.01-.14-.02-.28.07-.41.04-.13-.03-.28-.01-.4-.05-.13-.04-.18-.26-.3-.32-.12-.06-.33.03-.43-.04-.12-.08-.14-.28-.24-.37-.1-.09-.23-.15-.32-.26-.09-.1-.16-.22-.24-.34-.08-.11-.11-.25-.17-.37-.06-.12-.2-.21-.26-.34-.05-.13-.17-.25-.22-.39-.04-.13-.02-.3-.06-.44-.03-.14-.11-.27-.14-.42-.03-.14-.05-.29-.07-.43-.02-.14-.05-.29-.06-.43-.02-.14.08-.3.07-.44,0-.13-.08-.27-.09-.41,0-.14,0-.27,0-.41,0-.14.1-.28.1-.42,0-.14-.1-.27-.11-.41,0-.14-.03-.27-.04-.41,0-.14,0-.28,0-.42,0-.14.1-.28.1-.42,0-.14-.07-.27-.07-.41s-.08-.28-.08-.42c0-.14.06-.28.07-.42,0-.14-.05-.28-.04-.42,0-.14.14-.27.15-.41,0-.14.03-.28.04-.41.01-.14-.14-.29-.13-.43.02-.14.11-.27.13-.4.02-.16-.02-.32,0-.47.03-.15.1-.3.14-.44.04-.15.07-.3.11-.45.05-.15.17-.27.23-.41.06-.15.1-.29.16-.42.06-.12.13-.22.19-.32.07-.11.18-.17.26-.27.08-.1,0-.33.09-.42.09-.09.24-.13.34-.2.1-.08.23-.1.34-.17.12-.07.21-.19.35-.24.13-.05.27-.05.41-.09.13-.04.26-.1.4-.12.13-.02.28.03.42.02.14-.01.27-.05.42-.05.15,0,.3-.06.45-.05.15.01.28.15.43.17.15.02.32-.11.46-.08.15.04.3.08.43.13.14.05.21.26.34.32.14.07.33.03.46.12.13.09.16.29.27.39.12.1.25.16.35.27.1.11.23.2.32.32.08.11.21.18.28.3.07.11.02.3.08.42.06.12.26.17.31.3.06.14.05.31.1.46.05.14.12.28.16.44.04.15.15.28.17.44.03.14-.15.32-.13.47.02.14.1.28.12.43.02.14.12.28.14.44.01.14-.06.3-.05.45,0,.13-.04.26-.04.39,0,.13,0,.26.01.39,0,.13.09.26.1.39,0,.13-.08.26-.07.4,0,.13.13.26.13.4,0,.13-.04.26-.04.4Z"/>
        <path d="M154.51,15.04c0-.14-.02-.27-.03-.41-.01-.14.06-.28.05-.42-.02-.14-.06-.27-.08-.41-.02-.14-.03-.28-.05-.41-.02-.14-.12-.26-.15-.39-.03-.14.03-.29,0-.42-.03-.14,0-.29-.04-.42-.04-.13-.19-.23-.23-.37-.04-.13-.03-.28-.07-.41-.05-.13-.14-.24-.19-.37-.05-.13.02-.31-.04-.43-.05-.13-.1-.26-.16-.39-.06-.13-.27-.18-.33-.3-.06-.12-.06-.28-.12-.4-.07-.12-.19-.21-.26-.33-.07-.12-.1-.26-.18-.38-.07-.12-.16-.23-.24-.34-.08-.12-.09-.28-.17-.39-.08-.11-.18-.22-.26-.33-.08-.11-.16-.23-.25-.34-.09-.11-.13-.26-.22-.36-.09-.11-.33-.08-.43-.18-.09-.1-.13-.25-.23-.36-.1-.1-.15-.24-.25-.34-.1-.1-.24-.16-.34-.25-.1-.1-.17-.23-.27-.32-.1-.09-.23-.16-.33-.25-.11-.09-.17-.23-.28-.32-.11-.09-.24-.15-.35-.23-.11-.08-.26-.11-.37-.19-.11-.08-.15-.27-.27-.34-.12-.08-.32-.02-.44-.09-.12-.07-.23-.14-.35-.21-.12-.07-.16-.27-.29-.34-.12-.07-.31,0-.43-.07-.12-.06-.19-.26-.31-.31-.13-.06-.27-.07-.4-.13-.13-.05-.27-.07-.4-.12-.13-.05-.28-.03-.41-.08-.13-.04-.22-.22-.35-.26-.13-.04-.31.07-.44.03-.13-.04-.25-.14-.38-.17-.13-.03-.28-.03-.41-.06-.14-.03-.28.02-.42,0-.14-.02-.24-.24-.38-.26-.14-.02-.28.03-.42,0-.14-.02-.28.07-.42.05-.14-.01-.27-.1-.41-.11-.14,0-.28-.07-.42-.07-.14,0-.28,0-.42,0s-.28.09-.42.09c-.14,0-.28-.07-.42-.06-.14,0-.27.15-.41.16-.14.01-.28-.02-.42,0-.14.02-.29-.08-.43-.06-.14.02-.28.05-.41.08-.14.02-.26.16-.39.19-.14.03-.26.12-.39.15-.14.03-.28.03-.41.07-.14.04-.27.06-.4.1-.13.04-.26.09-.4.13-.13.04-.29,0-.42.06-.13.05-.27.07-.4.13-.13.05-.24.15-.37.21-.13.06-.27.09-.39.15-.13.06-.24.14-.37.2-.12.06-.22.18-.34.25-.12.07-.22.17-.34.24-.12.07-.24.15-.35.22-.12.08-.3.05-.42.13-.11.08-.15.27-.26.35-.11.08-.19.2-.3.29-.11.09-.33.03-.44.12-.11.09-.22.18-.32.27-.1.09-.18.22-.28.32-.1.1-.19.21-.29.31-.1.1-.16.23-.25.33-.1.1-.29.11-.38.21-.09.1-.17.22-.26.32-.09.1-.1.28-.18.39-.09.11-.13.25-.21.36-.08.11-.32.11-.4.22-.08.11-.01.33-.09.44-.08.11-.28.15-.35.26-.07.12-.11.26-.18.38-.07.12-.15.23-.22.35-.07.12-.17.22-.23.35-.06.12-.04.29-.1.41-.06.12-.05.28-.1.4-.05.13-.17.23-.22.35-.05.13-.05.27-.1.4-.05.13-.09.26-.13.39-.04.13-.07.26-.11.4-.04.13-.18.24-.21.37-.03.13,0,.28-.03.42-.03.13-.07.27-.09.4-.02.14-.16.25-.18.39-.02.14.05.29.04.42-.02.14,0,.28-.02.41-.01.14-.03.27-.03.41,0,.14-.11.27-.12.41,0,.14.06.28.06.42s-.04.28-.04.42c0,.14.14.27.15.41,0,.14-.09.28-.08.42.01.14.11.27.13.41.01.14-.09.29-.07.43.02.14.06.27.08.41.02.14.11.26.13.4.03.14-.03.29,0,.42.03.14.23.23.26.36.03.13.03.27.07.41.04.13-.07.31-.03.44.04.13.1.26.15.39.05.13.13.25.18.38.05.13.21.21.26.34.05.13.05.28.11.4.06.13.05.28.11.41.06.12.17.22.24.35.07.12.17.22.24.34.07.12.06.29.13.4.07.12.14.24.22.36.08.11.23.18.31.29.08.11.1.27.19.38.09.11.18.21.27.32.09.11.31.1.4.2.09.1.11.27.21.37.1.1.23.16.33.25.1.1.23.16.33.26.1.09.2.18.31.28.11.09.22.18.32.27.11.09.11.31.22.4.11.09.27.11.38.19.11.08.24.15.35.23.12.08.22.18.33.26.12.08.2.21.32.28.12.07.26.11.39.18.12.07.27.1.39.16.12.07.27.08.4.14.13.06.18.27.31.33.13.06.31,0,.44.06.13.06.27.07.4.12.13.05.27.08.4.13.13.05.26.11.39.15.13.04.24.18.37.22.13.04.25.14.39.18.14.03.3-.05.44-.02.14.03.29,0,.42.02.14.03.27.05.41.07.14.02.26.2.39.22.14.02.28.03.42.04.14.01.29-.11.43-.1.14,0,.27.16.41.16.14,0,.28-.05.42-.05s.28.03.42.03c.14,0,.29.03.43.03.14,0,.27-.13.41-.14.14-.01.29.08.43.06.14-.02.26-.2.4-.22.14-.02.29.02.42,0,.14-.02.26-.11.4-.14.14-.03.31.1.45.07.14-.03.26-.12.4-.16.14-.04.25-.16.38-.2.13-.04.29-.01.42-.06.13-.04.23-.18.36-.23.13-.05.3.01.44-.04.13-.05.21-.22.34-.28.13-.06.26-.11.38-.17.13-.06.29-.04.42-.1.12-.06.26-.1.39-.17.12-.07.19-.23.31-.3.12-.07.31-.03.43-.11.12-.08.21-.19.33-.27.12-.08.27-.1.39-.19.11-.08.21-.19.32-.28.11-.09.15-.26.26-.35.11-.09.27-.12.38-.21.11-.09.23-.17.33-.27.1-.1.13-.27.23-.37.1-.1.2-.19.3-.29.1-.1.29-.11.38-.21.09-.1.06-.32.15-.42.09-.11.17-.21.26-.32.09-.11.28-.13.36-.24.08-.11.07-.29.15-.41.08-.11.22-.18.3-.3.08-.12.1-.27.17-.38.07-.12.28-.16.35-.28.07-.12-.02-.33.04-.45.07-.12.19-.21.25-.33.06-.12.19-.22.24-.34.06-.13.08-.27.14-.39.05-.13.1-.26.15-.39.05-.13.12-.25.16-.38.05-.13.14-.25.18-.38.04-.13.02-.28.06-.42.04-.13.11-.26.15-.39.03-.13.02-.28.05-.42.03-.14-.06-.29-.04-.43.02-.14.23-.24.25-.38.02-.14-.05-.29-.04-.43.02-.14.13-.27.14-.41.01-.14-.13-.29-.12-.43,0-.14.12-.27.13-.41,0-.14.03-.28.03-.42s-.12-.28-.13-.42c0-.14-.06-.28-.07-.41ZM150.52,16.67c0,.14.05.28.03.42-.02.14-.16.26-.18.39-.02.14.12.3.09.43-.03.14-.06.27-.09.41-.03.13-.22.23-.25.36-.04.13.05.3.01.43-.04.13-.23.21-.28.34-.05.13-.06.27-.11.4-.05.13-.08.27-.14.39-.06.12-.06.28-.13.4-.06.12-.25.17-.32.29-.07.12-.01.31-.09.43-.08.12-.21.19-.29.3-.08.11-.14.24-.22.35-.08.11-.11.27-.2.37-.09.1-.33.08-.42.18-.09.1-.14.24-.24.34-.1.1-.13.26-.23.35-.1.09-.26.13-.36.22-.1.09-.24.13-.35.22-.11.09-.22.16-.33.24-.11.08-.17.23-.29.3-.11.08-.27.08-.39.15-.12.07-.17.25-.29.32-.12.07-.26.09-.39.15-.12.06-.29.01-.42.07-.13.05-.24.12-.37.16-.13.05-.22.2-.35.24-.13.04-.25.14-.38.18-.13.04-.27.04-.41.07-.13.03-.27.05-.41.07-.13.03-.27.05-.41.07-.13.02-.28-.05-.42-.04-.14.01-.27,0-.41.01-.14,0-.27.06-.41.07-.14,0-.27-.02-.41-.02s-.28.01-.42,0c-.14,0-.28.04-.42.03-.14-.01-.28,0-.42-.01-.14-.02-.28-.04-.42-.06-.14-.02-.25-.18-.39-.21-.14-.03-.3.06-.44.03-.13-.04-.29-.03-.42-.07-.13-.04-.21-.26-.34-.31-.13-.05-.26-.1-.38-.15-.13-.05-.27-.07-.4-.13-.13-.06-.26-.1-.38-.17-.12-.07-.27-.09-.39-.16-.12-.07-.16-.26-.28-.34-.12-.08-.24-.13-.36-.22-.11-.08-.29-.07-.4-.16-.11-.08-.26-.13-.36-.22-.11-.09-.09-.32-.19-.42-.1-.09-.33-.06-.43-.15-.1-.1-.1-.3-.19-.41-.1-.1-.23-.17-.32-.28-.09-.11-.17-.22-.26-.33-.09-.11-.14-.25-.22-.36-.08-.11-.24-.18-.32-.29-.08-.12-.22-.2-.29-.32-.07-.12-.09-.28-.15-.4-.07-.12-.17-.23-.24-.36-.06-.13-.12-.26-.17-.39-.06-.13-.12-.26-.17-.39-.05-.13,0-.3-.04-.44-.04-.13-.14-.25-.18-.39-.04-.14-.06-.28-.09-.41-.03-.14.06-.3.03-.44-.03-.14-.14-.26-.16-.4-.02-.14-.06-.28-.08-.42-.01-.14-.02-.28-.03-.42,0-.14.08-.28.08-.43,0-.14-.07-.28-.07-.42s-.04-.28-.04-.41c0-.14-.05-.28-.04-.42,0-.14.18-.26.2-.39.01-.14-.03-.28,0-.41.02-.14-.04-.29-.02-.42.03-.13.12-.25.15-.39.03-.13-.03-.29,0-.42.04-.13.19-.23.23-.36.04-.13-.03-.3.02-.43.05-.13.1-.26.16-.38.05-.13.2-.21.25-.34.06-.12.15-.23.21-.35.06-.12.04-.29.12-.41.07-.12.25-.16.33-.28.07-.11.12-.25.2-.36.08-.11.22-.17.3-.28.08-.11.15-.23.24-.33.09-.1.1-.28.19-.38.09-.1.25-.14.35-.24.1-.1.21-.17.31-.27.1-.09.13-.26.23-.35.1-.09.21-.17.32-.26.11-.09.29-.06.4-.14.11-.08.13-.29.24-.37.11-.08.23-.16.34-.23.12-.07.3-.03.42-.09.12-.07.18-.24.31-.3.12-.06.28-.05.4-.1.12-.05.23-.17.35-.22.13-.05.31.05.43,0,.13-.04.2-.26.34-.3.13-.04.28,0,.42-.04.13-.03.28,0,.41-.02.13-.03.26-.08.4-.1.13-.02.27-.04.4-.06.13-.01.27,0,.41-.02.14,0,.27.04.41.03.14,0,.27-.07.41-.07s.27.05.41.05c.14,0,.27-.03.41-.02.14,0,.28-.1.42-.08.14.02.25.22.38.24.14.02.28-.05.42-.02.13.03.24.15.37.18.13.03.3-.08.43-.04.13.04.23.18.36.22.13.04.24.11.37.16.13.05.3-.01.42.04.12.05.27.07.39.13.12.06.25.12.37.19.12.07.19.21.31.28.12.07.24.12.36.2.11.08.22.17.33.25.11.08.26.11.37.19.11.08.15.24.26.33.1.09.16.23.26.32.1.09.28.1.38.2.1.1.15.24.24.34.09.1.23.17.32.27.09.11.08.29.16.4.08.11.16.22.24.33.08.11.3.13.37.25.07.12.08.28.15.39.07.12.2.21.26.33.06.12.09.27.15.39.06.12.13.25.18.37.05.13.03.29.07.41.05.13.11.25.15.38.04.13.07.27.1.4.04.13,0,.28.04.41.03.13.26.23.28.36.02.13-.03.29,0,.42.02.14-.02.28,0,.42.01.14.08.27.09.41,0,.14-.03.28-.03.42,0,.14.04.27.04.41s-.07.28-.08.41c0,.14.02.28.01.41Z"/>
        <path d="M169.82,22.05c0-.21.11-.21.11-.42s.03-.21.03-.42-.12-.21-.12-.42-.05-.21-.05-.42,0-.21,0-.42.09-.21.09-.42-.02-.21-.02-.42.01-.21.01-.42-.08-.21-.08-.42.09-.21.09-.42.06-.21.06-.42-.12-.21-.12-.42.06-.21.06-.42-.06-.21-.06-.42.13-.21.13-.42,0-.21,0-.42-.17-.21-.17-.42.08-.21.08-.42-.07-.21-.07-.42.04-.21.04-.42-.01-.21-.01-.42.08-.21.08-.42.13-.29-.02-.44c-.15-.15-.23-.02-.45-.02s-.22-.06-.43-.06-.21.2-.43.2-.21-.07-.43-.07-.21-.06-.43-.06-.21.06-.43.06-.21-.05-.43-.05-.21.03-.43.03-.32-.2-.47-.05c-.15.15.01.26.01.47s.07.21.07.42-.13.21-.13.42.16.21.16.42,0,.21,0,.42-.16.21-.16.42.14.21.14.42-.15.21-.15.42.05.21.05.42.04.21.04.42.07.21.07.42-.14.21-.14.42.15.21.15.42-.07.21-.07.42.03.21.03.42.08.21.08.42-.2.21-.2.41.06.21.06.41.09.21.09.41-.08.21-.08.42-.06.21-.06.42,0,.21,0,.42.09.21.09.42c0,.15-.08.29-.09.43,0,.15.11.3.1.44-.01.15-.08.29-.1.42-.02.15-.16.26-.19.4-.03.14-.06.28-.11.41-.05.14,0,.31-.06.44-.06.13-.08.29-.16.41-.08.12-.2.23-.29.33-.1.11-.22.2-.33.29-.11.09-.24.18-.36.24-.12.07-.29.04-.43.09-.13.05-.27.06-.42.09-.14.03-.27.1-.42.11-.14.01-.28,0-.43,0s-.29.01-.43,0c-.15-.01-.3.02-.43,0-.14-.03-.3-.04-.43-.08-.14-.05-.28-.11-.4-.18-.13-.07-.18-.25-.29-.34-.11-.09-.3-.09-.4-.2-.09-.1-.23-.2-.31-.32-.08-.12.01-.33-.05-.47-.06-.13-.11-.25-.16-.39-.05-.13-.13-.25-.16-.4-.03-.14-.08-.27-.11-.42-.02-.14-.1-.27-.11-.42-.01-.14.11-.29.11-.44,0-.14-.03-.28-.03-.43,0-.21-.11-.21-.11-.42s-.06-.21-.06-.42.19-.21.19-.42-.18-.21-.18-.42.15-.21.15-.42-.04-.21-.04-.42.02-.21.02-.42.04-.21.04-.42-.09-.21-.09-.42-.07-.21-.07-.42.07-.21.07-.42-.05-.21-.05-.42,0-.21,0-.42,0-.21,0-.42.11-.21.11-.42-.06-.21-.06-.42.02-.21.02-.41.12-.21.12-.41-.09-.21-.09-.41-.02-.21-.02-.42,0-.21,0-.42.1-.21.1-.42.08-.29-.07-.44c-.15-.15-.21-.02-.45.03-.21.05-.22-.08-.43-.08s-.21.05-.43.05-.21.04-.43.04-.21-.1-.43-.1-.21-.02-.43-.02-.21.09-.43.09-.21-.09-.43-.09-.34-.12-.49.03c-.15.15.14.28.14.49s-.1.21-.1.42.06.21.06.42.04.21.04.42,0,.21,0,.42,0,.21,0,.42-.17.21-.17.42.08.21.08.42.02.21.02.42-.02.21-.02.42-.06.21-.06.42.05.21.05.42.05.21.05.42.06.21.06.42-.16.21-.16.42.13.21.13.42.04.21.04.42.02.21.02.42-.02.21-.02.42-.11.21-.11.42-.07.21-.07.42.12.21.12.42.07.21.07.42c0,.15,0,.3,0,.44,0,.15-.16.3-.15.45,0,.15.02.3.03.44.01.15.15.28.17.43.02.15-.11.32-.08.46.02.15.11.29.14.42.03.15.04.3.08.44.04.15.05.31.11.43.05.13.21.22.27.34.06.13.03.3.1.42.07.12.29.15.37.26.08.11.11.26.2.37.09.11.22.17.32.27.09.1.07.32.17.41.1.1.24.15.35.24.1.09.26.11.37.19.11.08.18.22.29.3.11.08.28.06.4.13.12.07.18.24.3.3.12.06.3,0,.42.06.13.05.25.11.38.15.13.05.23.18.36.21.13.04.26.11.39.14.13.03.29-.04.42-.01.13.02.25.18.39.19.13.02.28,0,.42,0,.14.01.27.09.41.1.14,0,.28-.02.42-.02s.28-.11.41-.12c.14,0,.28.07.42.06.14-.01.28,0,.42-.02.14-.02.26-.14.39-.17.14-.02.27-.05.4-.08.14-.03.3.06.43.02.13-.04.21-.24.34-.28.13-.05.25-.1.38-.15.13-.05.31,0,.43-.05.12-.06.19-.23.31-.3.12-.07.28-.08.39-.15.11-.08.19-.21.3-.29.11-.08.31-.05.42-.15.11-.09.08-.32.18-.42.1-.1.24-.15.34-.25.09-.1.24-.17.32-.28.09-.11.14-.24.22-.36.08-.12.15-.24.21-.36.07-.12.15-.24.21-.36.06-.13.16-.24.21-.37.05-.14.03-.3.07-.44.04-.14.12-.27.15-.42.03-.14.02-.3.04-.44.02-.14-.07-.3-.05-.45.02-.14.22-.27.24-.42.01-.14-.07-.3-.06-.45,0-.14.11-.29.12-.44,0-.14-.14-.29-.14-.44Z"/>
        <path d="M180.63,15.68c.1-.2.06-.22.15-.41.1-.2.12-.18.22-.38.1-.2.08-.2.18-.4.1-.2.05-.22.15-.42.1-.2.07-.21.17-.41.1-.2.1-.2.2-.39.1-.2.28-.14.32-.35-.12-.07-.34-.1-.47-.17-.13-.07-.27-.09-.4-.15-.13-.06-.18-.28-.31-.34-.13-.05-.27-.11-.4-.15-.14-.04-.29-.04-.42-.08-.14-.04-.28-.04-.42-.07-.14-.02-.29.01-.42,0-.14-.01-.28-.16-.42-.16s-.28.03-.42.04c-.14.01-.26.14-.4.16-.14.02-.25.1-.38.14-.14.03-.32-.1-.45-.06-.13.05-.18.27-.3.33-.11.06-.3,0-.42.07-.11.07-.2.18-.31.27-.1.08-.22.15-.33.24-.1.08-.23.14-.33.24-.1.09-.13.25-.23.35-.09.09-.29.21-.38.31-.06-.18.06-.22.06-.4s-.05-.19-.05-.37,0-.19,0-.37.16-.19.02-.31c-.16-.14-.16-.09-.38-.09s-.22.06-.43.06-.21-.02-.43-.02-.21-.12-.43-.12-.21.09-.43.09-.21.02-.43.02-.21,0-.43,0-.21-.1-.43-.1-.3-.08-.45.07c-.15.15-.1.23-.05.46.05.21.1.2.1.41s0,.21,0,.42-.13.21-.13.42.16.21.16.42,0,.21,0,.42-.13.21-.13.42.12.21.12.42-.08.21-.08.42.07.21.07.42-.15.21-.15.42.18.21.18.42-.07.21-.07.42-.07.21-.07.42.03.21.03.42,0,.21,0,.42-.02.21-.02.42-.05.21-.05.41.06.21.06.41-.04.21-.04.42.04.21.04.42.12.21.12.42-.19.21-.19.42.09.21.09.42-.1.21-.1.42.15.21.15.42-.11.21-.11.42-.03.21-.03.42.12.21.12.42.05.21.05.42,0,.21,0,.42-.09.21-.09.42.02.21.02.42-.01.21-.01.42.08.21.08.42-.09.21-.09.42-.06.21-.06.42.12.21.12.42-.06.21-.06.42-.11.24.04.38c.15.15.18.11.4.11s.22,0,.43,0,.21-.17.43-.17.21.08.43.08.21-.07.43-.07.21.04.43.04.21-.01.43-.01.21.08.43.08.29.12.45-.02c.15-.15.02-.23.02-.43s.06-.21.06-.42-.2-.21-.2-.41.07-.21.07-.41.06-.21.06-.41-.06-.21-.06-.41.05-.21.05-.41-.03-.21-.03-.41.07-.21.07-.41-.03-.21-.03-.41-.07-.21-.07-.41.13-.21.13-.41-.16-.21-.16-.41,0-.21,0-.41.16-.21.16-.41-.14-.21-.14-.41.15-.2.15-.41-.05-.2-.05-.41-.04-.2-.04-.41-.07-.21-.07-.41.14-.21.14-.41c0-.15-.15-.3-.14-.44,0-.15.08-.29.09-.43.01-.15,0-.29,0-.43.02-.15-.04-.3-.02-.44.02-.15.25-.25.28-.38.03-.14,0-.29.05-.43.04-.14,0-.31.06-.44.06-.14.19-.23.26-.35.07-.13.19-.21.28-.33.09-.12.18-.21.28-.31.1-.1.16-.25.28-.33.12-.08.28-.08.41-.13.13-.06.22-.23.36-.26.14-.04.29-.02.44-.04.14-.02.28.09.43.09.13,0,.24,0,.37.01.13.02.27-.07.4-.03.12.03.27.02.39.06.12.05.23.13.35.19.11.06.22.13.33.2.11.07.16.14.27.22.15-.16.17-.15.27-.34.1-.2.12-.19.22-.38Z"/>
        <path d="M192.23,23.56c0-.14-.08-.26-.1-.4-.02-.14-.01-.27-.04-.4-.03-.14-.05-.27-.1-.39-.04-.13-.09-.25-.15-.37-.06-.13-.04-.29-.11-.4-.07-.12-.13-.25-.21-.36-.08-.11-.21-.18-.3-.28-.09-.09-.17-.2-.27-.3-.1-.08-.21-.16-.32-.24-.1-.08-.24-.11-.36-.19-.11-.07-.23-.12-.35-.19-.11-.07-.22-.14-.34-.21-.11-.07-.17-.24-.29-.31-.11-.06-.29-.01-.42-.08-.12-.06-.26-.08-.38-.14-.12-.06-.16-.28-.28-.34-.12-.06-.24-.12-.37-.17-.12-.05-.26-.07-.39-.12-.12-.05-.25-.09-.38-.14-.14-.06-.3-.07-.43-.13-.14-.07-.21-.25-.33-.32-.14-.07-.27-.12-.39-.19-.13-.08-.31-.07-.42-.16-.13-.1-.28-.16-.37-.26-.11-.12-.05-.34-.11-.46-.07-.14-.28-.24-.28-.38,0-.18.18-.32.24-.47.06-.15.11-.3.24-.42.13-.12.27-.19.42-.25.15-.06.3-.04.48-.04.14,0,.29-.07.43-.03.13.04.31.04.43.11.12.07.2.22.31.32.1.09.23.17.32.29.08.11.16.23.24.36.07.12.07.2.13.33.2-.03.2,0,.38-.09.18-.09.15-.15.33-.24.18-.09.18-.08.36-.18.18-.09.23,0,.41-.09.18-.09.13-.17.31-.27.18-.09.17-.12.34-.21.18-.09.18-.09.35-.18.18-.09.22,0,.4-.1.18-.09.19-.1.33-.25-.06-.13-.07-.31-.13-.43-.07-.12-.24-.18-.31-.3-.07-.12-.18-.21-.25-.32-.08-.12-.17-.21-.25-.32-.09-.11-.16-.22-.25-.32-.09-.1-.11-.27-.21-.37-.1-.1-.16-.24-.27-.33-.11-.09-.29-.07-.41-.15-.11-.08-.26-.09-.38-.15-.12-.07-.23-.13-.36-.18-.13-.05-.2-.26-.33-.3-.13-.04-.27-.08-.4-.11-.13-.03-.29.07-.43.05-.13-.02-.26-.18-.39-.19-.13,0-.28.04-.42.04s-.28-.03-.41-.02c-.14,0-.28-.02-.41,0-.14.02-.25.15-.39.18-.13.03-.29-.04-.42,0-.13.04-.21.24-.33.29-.13.05-.27.04-.39.1-.12.06-.21.18-.33.25-.12.07-.32,0-.43.08-.11.08-.19.21-.29.29-.1.08-.15.24-.25.33-.1.09-.24.14-.33.24-.09.1-.1.26-.18.37-.08.11-.25.15-.33.26-.07.11-.03.29-.09.41-.06.12-.12.23-.17.36-.05.12-.18.21-.22.34-.04.13-.11.25-.13.38-.03.13.05.28.03.41-.02.13-.16.25-.17.39,0,.13.03.27.03.41s-.07.29-.06.42c.01.14.06.28.08.41.02.14.15.25.19.38.03.14,0,.29.04.42.05.13.08.27.14.39.06.12.22.19.3.31.08.12.15.23.24.33.08.1.08.29.19.39.09.09.31.06.42.15.1.08.21.16.33.24.11.08.15.26.27.34.11.07.29.04.42.11.12.07.2.2.33.27.12.06.27.07.4.13.13.06.2.26.33.33s.34-.04.47.02c.13.06.23.19.36.25.13.06.23.19.36.25.13.06.27.1.4.16s.26.12.39.19c.13.08.24.17.35.25.12.09.2.21.3.3.11.1.25.14.34.24.1.11.15.24.22.36.08.13.17.23.21.36.04.14.18.27.18.41,0,.15-.2.28-.22.42-.02.15.03.3-.03.43-.06.14-.21.2-.3.3-.09.11-.1.31-.22.39-.12.07-.29.03-.44.08-.13.04-.26.04-.42.06-.14.02-.27.15-.42.15s-.33.04-.47,0c-.15-.03-.32-.07-.46-.12-.14-.06-.25-.21-.38-.29-.13-.08-.26-.16-.38-.27-.09-.08-.18-.21-.29-.36-.08-.11-.23-.19-.33-.34-.08-.12-.08-.3-.17-.44-.08-.13-.17-.33-.25-.47-.2.01-.16.2-.34.29-.18.09-.21.03-.39.12-.18.08-.16.14-.34.22-.18.08-.24-.03-.42.06-.18.08-.19.08-.37.16-.18.08-.11.24-.29.32-.18.08-.22.01-.4.1-.18.08-.15.15-.34.23-.18.08-.23-.02-.37.12.06.13.13.23.19.35.06.13.05.3.12.42.07.13.16.24.23.36.08.12.14.25.22.37.08.12.12.27.21.38.09.11.34.09.43.2.1.11.14.26.24.36.1.1.17.24.28.33.11.09.26.13.37.22.12.08.21.2.33.28.12.07.26.12.39.18.13.06.23.18.37.24.13.05.28.07.42.11.14.04.29.02.43.05.14.03.25.19.4.21.14.02.3-.12.45-.1.14.02.28.03.42.04.14,0,.28.17.43.17s.28-.14.41-.15c.14,0,.29.13.43.11.14-.02.27-.08.41-.11.14-.02.27-.09.4-.12.13-.03.25-.14.38-.18.13-.04.31.04.44-.01.13-.05.19-.25.32-.31.12-.06.28-.06.4-.13.12-.07.22-.17.34-.25.11-.08.18-.22.29-.31.11-.08.34-.02.45-.11.1-.09.16-.24.26-.34.1-.1.12-.27.21-.37.09-.11.24-.17.32-.28.08-.11.21-.2.28-.32.07-.12.14-.24.2-.37.06-.12.04-.29.09-.42.05-.13.17-.24.21-.37.04-.13-.05-.3-.02-.43.03-.13.09-.26.11-.4.02-.14.15-.26.15-.4,0-.14,0-.28,0-.42s-.12-.27-.13-.41Z"/>
      </g>
      <g>
        <path d="M35.77,38l1.85,4.75,1.93-5.09,1.85,5.09,1.96-4.75h1.16l-3.17,7.56-1.83-5.03-1.9,5.04-3.02-7.56h1.16Z"/>
        <path d="M49.46,39.01h-2.85v1.71h2.77v1.01h-2.77v2.37h2.85v1.01h-3.92v-7.1h3.92v1.01Z"/>
        <path d="M51,45.1v-7.1h1.49c.71,0,1.28.07,1.69.21.44.14.85.37,1.21.7.73.67,1.1,1.55,1.1,2.64s-.38,1.98-1.15,2.65c-.38.34-.79.57-1.21.7-.39.13-.95.2-1.67.2h-1.47ZM52.07,44.09h.48c.48,0,.88-.05,1.2-.15.32-.11.61-.28.86-.51.53-.48.79-1.11.79-1.88s-.26-1.41-.78-1.9c-.47-.43-1.16-.65-2.08-.65h-.48v5.09Z"/>
        <path d="M57.74,45.1v-7.1h1.49c.71,0,1.28.07,1.69.21.44.14.85.37,1.21.7.73.67,1.1,1.55,1.1,2.64s-.38,1.98-1.15,2.65c-.38.34-.79.57-1.21.7-.39.13-.95.2-1.67.2h-1.47ZM58.81,44.09h.48c.48,0,.88-.05,1.2-.15.32-.11.61-.28.86-.51.53-.48.79-1.11.79-1.88s-.26-1.41-.78-1.9c-.47-.43-1.16-.65-2.08-.65h-.48v5.09Z"/>
        <path d="M65.79,38v7.1h-1.07v-7.1h1.07Z"/>
        <path d="M67.63,45.1v-7.59l5.18,5.42v-4.94h1.07v7.54l-5.18-5.41v4.97h-1.07Z"/>
        <path d="M79.17,41.4h2.94v.23c0,.53-.06,1.01-.19,1.42-.12.38-.33.74-.62,1.07-.66.74-1.5,1.11-2.52,1.11s-1.85-.36-2.55-1.08c-.71-.72-1.06-1.59-1.06-2.6s.36-1.9,1.08-2.62c.72-.72,1.6-1.08,2.63-1.08.56,0,1.07.11,1.56.34.46.23.91.6,1.36,1.1l-.76.73c-.58-.78-1.29-1.16-2.13-1.16-.75,0-1.38.26-1.89.78-.51.51-.76,1.15-.76,1.91s.28,1.44.85,1.96c.53.48,1.11.71,1.73.71.53,0,1-.18,1.42-.53.42-.36.65-.79.7-1.29h-1.77v-1.01Z"/>
        <path d="M87.7,42.22v2.89h-1.07v-7.1h1.21c.6,0,1.04.04,1.35.12.31.08.58.24.81.47.41.4.61.9.61,1.51,0,.65-.22,1.17-.65,1.55-.44.38-1.02.57-1.76.57h-.5ZM87.7,41.22h.4c.98,0,1.48-.38,1.48-1.14s-.51-1.1-1.52-1.1h-.35v2.24Z"/>
        <path d="M92.92,40.78h3.06v-2.78h1.07v7.1h-1.07v-3.32h-3.06v3.32h-1.07v-7.1h1.07v2.78Z"/>
        <path d="M98.47,41.52c0-1,.37-1.86,1.1-2.58.73-.72,1.61-1.08,2.63-1.08s1.88.36,2.6,1.09c.73.72,1.09,1.59,1.09,2.61s-.36,1.89-1.09,2.6c-.73.71-1.62,1.07-2.65,1.07-.92,0-1.74-.32-2.47-.95-.8-.7-1.21-1.62-1.21-2.76ZM99.55,41.53c0,.79.26,1.43.79,1.94.52.51,1.13.76,1.82.76.75,0,1.37-.26,1.89-.77.51-.52.77-1.16.77-1.9s-.25-1.39-.76-1.91c-.5-.52-1.13-.77-1.87-.77s-1.36.26-1.87.77c-.51.51-.76,1.14-.76,1.89Z"/>
        <path d="M109.27,39.01v6.1h-1.07v-6.1h-1.63v-1.01h4.33v1.01h-1.63Z"/>
        <path d="M111.57,41.52c0-1,.37-1.86,1.1-2.58.73-.72,1.61-1.08,2.63-1.08s1.88.36,2.6,1.09c.73.72,1.09,1.59,1.09,2.61s-.36,1.89-1.09,2.6c-.73.71-1.62,1.07-2.65,1.07-.92,0-1.74-.32-2.47-.95-.8-.7-1.21-1.62-1.21-2.76ZM112.65,41.53c0,.79.26,1.43.79,1.94.52.51,1.13.76,1.82.76.75,0,1.37-.26,1.89-.77.51-.52.77-1.16.77-1.9s-.25-1.39-.76-1.91c-.5-.52-1.13-.77-1.87-.77s-1.36.26-1.87.77c-.51.51-.76,1.14-.76,1.89Z"/>
        <path d="M127.53,39.06l-.87.52c-.16-.28-.32-.47-.46-.55-.15-.1-.35-.15-.59-.15-.3,0-.54.08-.74.25-.2.17-.29.37-.29.63,0,.35.26.63.77.84l.71.29c.58.23,1,.52,1.27.85s.4.75.4,1.24c0,.65-.22,1.19-.65,1.62-.44.43-.98.64-1.63.64-.62,0-1.13-.18-1.53-.55-.4-.36-.64-.88-.74-1.54l1.09-.24c.05.42.14.71.26.86.22.31.54.46.97.46.33,0,.61-.11.83-.34.22-.22.33-.51.33-.85,0-.14-.02-.26-.06-.38-.04-.12-.1-.22-.18-.32-.08-.1-.19-.19-.31-.27s-.28-.16-.46-.24l-.69-.28c-.97-.41-1.46-1.01-1.46-1.8,0-.53.2-.98.61-1.34.41-.36.92-.54,1.52-.54.82,0,1.46.4,1.92,1.2Z"/>
        <path d="M131.1,39.01v6.1h-1.07v-6.1h-1.63v-1.01h4.33v1.01h-1.63Z"/>
        <path d="M134.89,38v4.28c0,.61.1,1.06.3,1.34.3.41.72.61,1.26.61s.96-.2,1.26-.61c.2-.27.3-.72.3-1.34v-4.28h1.07v4.57c0,.75-.23,1.36-.7,1.85-.52.54-1.17.81-1.93.81s-1.41-.27-1.93-.81c-.47-.48-.7-1.1-.7-1.85v-4.57h1.07Z"/>
        <path d="M140.91,45.1v-7.1h1.49c.71,0,1.28.07,1.69.21.44.14.85.37,1.21.7.73.67,1.1,1.55,1.1,2.64s-.38,1.98-1.15,2.65c-.38.34-.79.57-1.21.7-.39.13-.95.2-1.67.2h-1.47ZM141.99,44.09h.48c.48,0,.88-.05,1.2-.15.32-.11.61-.28.87-.51.53-.48.79-1.11.79-1.88s-.26-1.41-.78-1.9c-.47-.43-1.16-.65-2.08-.65h-.48v5.09Z"/>
        <path d="M148.9,38v7.1h-1.07v-7.1h1.07Z"/>
        <path d="M150.33,41.52c0-1,.37-1.86,1.1-2.58.73-.72,1.61-1.08,2.63-1.08s1.88.36,2.6,1.09c.73.72,1.09,1.59,1.09,2.61s-.36,1.89-1.09,2.6c-.73.71-1.62,1.07-2.65,1.07-.92,0-1.74-.32-2.47-.95-.8-.7-1.21-1.62-1.21-2.76ZM151.41,41.53c0,.79.26,1.43.79,1.94.52.51,1.13.76,1.82.76.75,0,1.37-.26,1.89-.77.51-.52.77-1.16.77-1.9s-.25-1.39-.76-1.91c-.5-.52-1.13-.77-1.87-.77s-1.36.26-1.87.77c-.51.51-.76,1.14-.76,1.89Z"/>
      </g>
    </g>
  </g>
</svg>