<?xml version="1.0" encoding="UTF-8"?>
<svg id="Layer_2" xmlns="http://www.w3.org/2000/svg" viewBox="0 0 32 36">
  <g id="footer_x5F_bg">
    <path d="M30.11,8.44c-1.86-.4-3.43-1.29-4.71-2.68-1.28-1.39-2.01-3.03-2.21-4.92v-.84h-6.32v24.64c0,1.44-.52,2.66-1.55,3.68-1.03,1.01-2.29,1.52-3.79,1.52-.86,0-1.66-.19-2.39-.57s-1.34-.88-1.83-1.5c-.34-.45-.61-.94-.8-1.48-.19-.53-.28-1.1-.28-1.69,0-1.43.52-2.66,1.55-3.67,1.03-1.01,2.28-1.52,3.74-1.52h.04-.04.04c.29,0,.57.02.84.06.27.05.54.11.79.19l-.04-.04v-6.29c-.23-.02-.47-.05-.73-.06-.26-.01-.53-.02-.82-.02h-.3c-1.55.03-3.01.35-4.39.97-1.38.62-2.57,1.44-3.59,2.47-1.02,1.03-1.83,2.21-2.43,3.57-.6,1.37-.9,2.84-.9,4.38s.3,3.01.9,4.37c.6,1.37,1.4,2.57,2.41,3.61,1.06,1.04,2.31,1.87,3.74,2.47,1.43.61,2.95.91,4.56.91s3.11-.3,4.52-.89c1.43-.59,2.67-1.4,3.72-2.43,1.05-1.02,1.87-2.23,2.47-3.6.63-1.38.95-2.86.95-4.44v-12.61c1.2.84,2.54,1.51,4.02,2,1.48.49,3.03.74,4.67.74h.04v-6.12h-.04c-.32,0-.62-.02-.93-.06-.3-.05-.61-.1-.92-.15Z"/>
  </g>
</svg>