<?xml version="1.0" encoding="UTF-8"?>
<svg id="Layer_2" xmlns="http://www.w3.org/2000/svg" viewBox="0 0 39 28">
  <g id="footer_x5F_bg">
    <path d="M38.18,4.4c-.21-.84-.62-1.58-1.23-2.2-.61-.63-1.32-1.06-2.15-1.31h-.05c-.76-.22-1.98-.39-3.65-.52-1.71-.09-3.41-.17-5.12-.23-1.71-.06-3.21-.1-4.52-.1-1.31-.03-1.96-.04-1.96-.04,0,0-.65.01-1.96.04-1.31,0-2.82.03-4.52.07-1.71.05-3.41.12-5.12.22-1.67.12-2.89.29-3.65.51-.85.25-1.58.69-2.19,1.31-.61.63-1.02,1.36-1.23,2.2C.4,5.94.15,7.95.09,10.37c-.06,2.42-.09,3.63-.09,3.63,0,0,.03,1.21.09,3.65.06,2.43.29,4.42.68,5.95.21.87.63,1.62,1.26,2.24.62.63,1.35,1.07,2.17,1.31.79.19,2.02.35,3.7.47,1.68.13,3.37.22,5.09.28,1.72.07,3.24.1,4.54.1h3.88c1.31,0,2.82-.03,4.54-.07,1.72-.05,3.42-.14,5.09-.26,1.67-.09,2.89-.25,3.65-.47.85-.25,1.58-.69,2.19-1.31.61-.62,1.04-1.34,1.28-2.15v-.05c.4-1.56.63-3.56.71-5.99.08-2.44.11-3.66.11-3.66,0,0-.03-1.21-.09-3.65-.06-2.43-.3-4.43-.73-5.99ZM15.57,19.99l.04-11.99,10.14,6-10.18,5.99Z"/>
  </g>
</svg>